<svg width="18" height="18" viewBox="0 0 18 18" fill="none" xmlns="http://www.w3.org/2000/svg">
<path fill-rule="evenodd" clip-rule="evenodd" d="M4.41843 2.33614C5.7527 1.4446 7.32138 0.96875 8.9261 0.96875V1.71875L8.92615 0.96875C11.0779 0.968887 13.1416 1.82375 14.6631 3.3453C16.1847 4.86686 17.0396 6.93049 17.0397 9.0823V9.08234C17.0397 10.6871 16.5638 12.2557 15.6723 13.59C14.7808 14.9243 13.5136 15.9642 12.031 16.5783C10.5485 17.1924 8.9171 17.3531 7.34321 17.04C5.76933 16.727 4.32363 15.9542 3.18892 14.8195C2.05421 13.6848 1.28147 12.2391 0.968404 10.6652C0.655339 9.09134 0.816015 7.45997 1.43011 5.97741C2.04421 4.49484 3.08415 3.22767 4.41843 2.33614ZM8.9261 2.46875C10.6801 2.46887 12.3622 3.1657 13.6025 4.40596C14.8427 5.64623 15.5396 7.32835 15.5397 9.08234M8.92605 2.46875C7.61802 2.46876 6.33937 2.85664 5.25178 3.58334C4.16418 4.31005 3.3165 5.34295 2.81593 6.55143C2.31537 7.75991 2.1844 9.08968 2.43958 10.3726C2.69477 11.6555 3.32465 12.8339 4.24958 13.7589C5.17451 14.6838 6.35294 15.3137 7.63585 15.5689C8.91876 15.824 10.2485 15.6931 11.457 15.1925C12.6655 14.6919 13.6984 13.8443 14.4251 12.7567C15.1518 11.6691 15.5397 10.3904 15.5397 9.08239" fill="#6C757D"/>
</svg>
