<svg width="350" height="311" viewBox="0 0 350 311" fill="none" xmlns="http://www.w3.org/2000/svg">
<circle cx="106.856" cy="106.856" r="106.856" fill="#633690" fill-opacity="0.5"/>
<circle cx="242.938" cy="106.856" r="106.856" fill="#942579" fill-opacity="0.64"/>
<circle cx="174.897" cy="203.666" r="106.856" fill="#E43443" fill-opacity="0.57"/>
<path d="M56.0142 97V84.22H60.5502C61.9302 84.22 63.0762 84.508 63.9882 85.084C64.9122 85.648 65.6082 86.416 66.0762 87.388C66.5442 88.348 66.7782 89.416 66.7782 90.592C66.7782 91.888 66.5202 93.016 66.0042 93.976C65.4882 94.936 64.7622 95.68 63.8262 96.208C62.9022 96.736 61.8102 97 60.5502 97H56.0142ZM64.7262 90.592C64.7262 89.692 64.5582 88.9 64.2222 88.216C63.8982 87.532 63.4242 86.992 62.8002 86.596C62.1882 86.2 61.4382 86.002 60.5502 86.002H58.0302V95.218H60.5502C61.4502 95.218 62.2062 95.014 62.8182 94.606C63.4422 94.198 63.9162 93.646 64.2402 92.95C64.5642 92.254 64.7262 91.468 64.7262 90.592ZM72.913 97.18C71.941 97.18 71.089 96.958 70.357 96.514C69.625 96.07 69.055 95.482 68.647 94.75C68.239 94.006 68.035 93.196 68.035 92.32C68.035 91.432 68.239 90.616 68.647 89.872C69.055 89.128 69.625 88.534 70.357 88.09C71.089 87.646 71.947 87.424 72.931 87.424C73.915 87.424 74.767 87.652 75.487 88.108C76.207 88.552 76.759 89.14 77.143 89.872C77.539 90.604 77.737 91.39 77.737 92.23C77.737 92.53 77.719 92.77 77.683 92.95H70.141C70.177 93.502 70.327 93.988 70.591 94.408C70.867 94.816 71.209 95.14 71.617 95.38C72.037 95.608 72.493 95.722 72.985 95.722C73.513 95.722 74.011 95.59 74.479 95.326C74.947 95.062 75.271 94.714 75.451 94.282L77.143 94.768C76.819 95.476 76.279 96.058 75.523 96.514C74.779 96.958 73.909 97.18 72.913 97.18ZM70.087 91.636H75.775C75.727 91.096 75.571 90.622 75.307 90.214C75.043 89.794 74.701 89.47 74.281 89.242C73.873 89.002 73.417 88.882 72.913 88.882C72.421 88.882 71.965 89.002 71.545 89.242C71.137 89.47 70.801 89.794 70.537 90.214C70.273 90.622 70.123 91.096 70.087 91.636ZM82.7001 97.18C81.9081 97.18 81.1581 97.048 80.4501 96.784C79.7421 96.52 79.1361 96.136 78.6321 95.632L79.3701 94.3C79.9101 94.78 80.4501 95.128 80.9901 95.344C81.5301 95.56 82.0761 95.668 82.6281 95.668C83.1801 95.668 83.6301 95.566 83.9781 95.362C84.3261 95.146 84.5001 94.834 84.5001 94.426C84.5001 94.138 84.4101 93.916 84.2301 93.76C84.0501 93.604 83.7861 93.478 83.4381 93.382C83.1021 93.286 82.6941 93.166 82.2141 93.022C81.5421 92.818 80.9781 92.608 80.5221 92.392C80.0661 92.164 79.7241 91.888 79.4961 91.564C79.2681 91.24 79.1541 90.826 79.1541 90.322C79.1541 89.41 79.4961 88.702 80.1801 88.198C80.8641 87.682 81.7581 87.424 82.8621 87.424C83.5461 87.424 84.1761 87.532 84.7521 87.748C85.3401 87.952 85.8561 88.276 86.3001 88.72L85.4541 90.034C84.6381 89.29 83.7381 88.918 82.7541 88.918C82.3221 88.918 81.9201 89.002 81.5481 89.17C81.1881 89.338 81.0081 89.65 81.0081 90.106C81.0081 90.49 81.1701 90.766 81.4941 90.934C81.8181 91.102 82.2981 91.282 82.9341 91.474C83.6541 91.69 84.2721 91.906 84.7881 92.122C85.3161 92.326 85.7181 92.596 85.9941 92.932C86.2821 93.256 86.4261 93.706 86.4261 94.282C86.4261 95.194 86.0841 95.908 85.4001 96.424C84.7161 96.928 83.8161 97.18 82.7001 97.18ZM88.1939 86.038V83.86H90.1739V86.038H88.1939ZM88.1939 97V87.586H90.1739V97H88.1939ZM96.2792 97.09C95.4272 97.09 94.6772 96.868 94.0292 96.424C93.3932 95.98 92.8892 95.398 92.5172 94.678C92.1572 93.946 91.9772 93.154 91.9772 92.302C91.9772 91.414 92.1632 90.598 92.5352 89.854C92.9072 89.11 93.4172 88.522 94.0652 88.09C94.7252 87.646 95.4872 87.424 96.3512 87.424C97.1072 87.424 97.7672 87.604 98.3312 87.964C98.9072 88.324 99.3812 88.792 99.7532 89.368V87.586H101.499V96.73C101.499 97.642 101.277 98.416 100.833 99.052C100.401 99.688 99.8072 100.174 99.0512 100.51C98.2952 100.846 97.4432 101.014 96.4952 101.014C95.4512 101.014 94.5812 100.834 93.8852 100.474C93.2012 100.114 92.6252 99.622 92.1572 98.998L93.2732 97.954C93.6332 98.458 94.0952 98.842 94.6592 99.106C95.2352 99.37 95.8472 99.502 96.4952 99.502C97.0352 99.502 97.5332 99.4 97.9892 99.196C98.4572 99.004 98.8292 98.704 99.1052 98.296C99.3812 97.888 99.5192 97.366 99.5192 96.73V95.29C99.1832 95.854 98.7212 96.298 98.1332 96.622C97.5452 96.934 96.9272 97.09 96.2792 97.09ZM96.9272 95.488C97.3232 95.488 97.7012 95.404 98.0612 95.236C98.4212 95.056 98.7272 94.822 98.9792 94.534C99.2432 94.246 99.4232 93.94 99.5192 93.616V91.15C99.2792 90.55 98.9012 90.064 98.3852 89.692C97.8812 89.308 97.3472 89.116 96.7832 89.116C96.2072 89.116 95.7092 89.272 95.2892 89.584C94.8812 89.896 94.5632 90.304 94.3352 90.808C94.1072 91.3 93.9932 91.816 93.9932 92.356C93.9932 92.932 94.1192 93.46 94.3712 93.94C94.6352 94.408 94.9892 94.786 95.4332 95.074C95.8772 95.35 96.3752 95.488 96.9272 95.488ZM112.316 97H110.336V91.726C110.336 90.838 110.192 90.196 109.904 89.8C109.628 89.392 109.214 89.188 108.662 89.188C108.278 89.188 107.894 89.284 107.51 89.476C107.138 89.668 106.802 89.932 106.502 90.268C106.202 90.604 105.986 90.982 105.854 91.402V97H103.874V87.586H105.674V89.476C106.034 88.852 106.556 88.354 107.24 87.982C107.924 87.61 108.68 87.424 109.508 87.424C110.252 87.424 110.828 87.604 111.236 87.964C111.644 88.312 111.926 88.774 112.082 89.35C112.238 89.926 112.316 90.562 112.316 91.258V97Z" fill="#F8F9FA"/>
<path d="M236.85 97V84.22H241.386C242.766 84.22 243.912 84.508 244.824 85.084C245.748 85.648 246.444 86.416 246.912 87.388C247.38 88.348 247.614 89.416 247.614 90.592C247.614 91.888 247.356 93.016 246.84 93.976C246.324 94.936 245.598 95.68 244.662 96.208C243.738 96.736 242.646 97 241.386 97H236.85ZM245.562 90.592C245.562 89.692 245.394 88.9 245.058 88.216C244.734 87.532 244.26 86.992 243.636 86.596C243.024 86.2 242.274 86.002 241.386 86.002H238.866V95.218H241.386C242.286 95.218 243.042 95.014 243.654 94.606C244.278 94.198 244.752 93.646 245.076 92.95C245.4 92.254 245.562 91.468 245.562 90.592ZM249.465 86.038V83.86H251.445V86.038H249.465ZM249.465 97V87.586H251.445V97H249.465ZM259.117 89.296C258.349 89.32 257.665 89.5 257.065 89.836C256.477 90.16 256.057 90.628 255.805 91.24V97H253.825V87.586H255.661V89.692C255.985 89.044 256.411 88.528 256.939 88.144C257.467 87.748 258.025 87.532 258.613 87.496C258.721 87.496 258.817 87.496 258.901 87.496C258.985 87.496 259.057 87.502 259.117 87.514V89.296ZM264.665 97.18C263.693 97.18 262.841 96.958 262.109 96.514C261.377 96.07 260.807 95.482 260.399 94.75C259.991 94.006 259.787 93.196 259.787 92.32C259.787 91.432 259.991 90.616 260.399 89.872C260.807 89.128 261.377 88.534 262.109 88.09C262.841 87.646 263.699 87.424 264.683 87.424C265.667 87.424 266.519 87.652 267.239 88.108C267.959 88.552 268.511 89.14 268.895 89.872C269.291 90.604 269.489 91.39 269.489 92.23C269.489 92.53 269.471 92.77 269.435 92.95H261.893C261.929 93.502 262.079 93.988 262.343 94.408C262.619 94.816 262.961 95.14 263.369 95.38C263.789 95.608 264.245 95.722 264.737 95.722C265.265 95.722 265.763 95.59 266.231 95.326C266.699 95.062 267.023 94.714 267.203 94.282L268.895 94.768C268.571 95.476 268.031 96.058 267.275 96.514C266.531 96.958 265.661 97.18 264.665 97.18ZM261.839 91.636H267.527C267.479 91.096 267.323 90.622 267.059 90.214C266.795 89.794 266.453 89.47 266.033 89.242C265.625 89.002 265.169 88.882 264.665 88.882C264.173 88.882 263.717 89.002 263.297 89.242C262.889 89.47 262.553 89.794 262.289 90.214C262.025 90.622 261.875 91.096 261.839 91.636ZM271.104 86.038V83.86H273.084V86.038H271.104ZM271.104 97V87.586H273.084V97H271.104ZM280.701 96.514C280.449 96.634 280.101 96.772 279.657 96.928C279.213 97.072 278.739 97.144 278.235 97.144C277.611 97.144 277.071 96.976 276.615 96.64C276.171 96.304 275.949 95.758 275.949 95.002V89.116H274.707V87.586H275.949V84.49H277.929V87.586H279.981V89.116H277.929V94.372C277.953 94.708 278.055 94.954 278.235 95.11C278.427 95.254 278.661 95.326 278.937 95.326C279.213 95.326 279.477 95.278 279.729 95.182C279.981 95.086 280.167 95.008 280.287 94.948L280.701 96.514ZM286.18 97.18C285.196 97.18 284.338 96.958 283.606 96.514C282.886 96.058 282.328 95.464 281.932 94.732C281.536 93.988 281.338 93.178 281.338 92.302C281.338 91.426 281.536 90.622 281.932 89.89C282.34 89.146 282.904 88.552 283.624 88.108C284.356 87.652 285.208 87.424 286.18 87.424C287.152 87.424 287.998 87.652 288.718 88.108C289.45 88.552 290.014 89.146 290.41 89.89C290.818 90.622 291.022 91.426 291.022 92.302C291.022 93.178 290.824 93.988 290.428 94.732C290.032 95.464 289.468 96.058 288.736 96.514C288.016 96.958 287.164 97.18 286.18 97.18ZM283.372 92.32C283.372 92.92 283.498 93.46 283.75 93.94C284.002 94.42 284.338 94.798 284.758 95.074C285.178 95.35 285.652 95.488 286.18 95.488C286.696 95.488 287.164 95.35 287.584 95.074C288.016 94.786 288.358 94.402 288.61 93.922C288.862 93.442 288.988 92.902 288.988 92.302C288.988 91.702 288.862 91.162 288.61 90.682C288.358 90.202 288.016 89.824 287.584 89.548C287.164 89.26 286.696 89.116 286.18 89.116C285.664 89.116 285.19 89.26 284.758 89.548C284.338 89.824 284.002 90.208 283.75 90.7C283.498 91.18 283.372 91.72 283.372 92.32Z" fill="#F8F9FA"/>
<path d="M160.975 245.09C159.967 245.09 159.109 244.916 158.401 244.568C157.693 244.22 157.123 243.746 156.691 243.146C156.259 242.534 155.947 241.85 155.755 241.094C155.563 240.326 155.467 239.528 155.467 238.7V232.22H157.483V238.7C157.483 239.288 157.543 239.858 157.663 240.41C157.783 240.95 157.975 241.436 158.239 241.868C158.503 242.3 158.857 242.642 159.301 242.894C159.757 243.146 160.315 243.272 160.975 243.272C161.647 243.272 162.205 243.146 162.649 242.894C163.105 242.63 163.465 242.282 163.729 241.85C163.993 241.406 164.179 240.914 164.287 240.374C164.407 239.834 164.467 239.276 164.467 238.7V232.22H166.501V238.7C166.501 239.576 166.393 240.398 166.177 241.166C165.973 241.934 165.649 242.612 165.205 243.2C164.773 243.788 164.203 244.25 163.495 244.586C162.799 244.922 161.959 245.09 160.975 245.09ZM172.05 245.18C171.258 245.18 170.508 245.048 169.8 244.784C169.092 244.52 168.486 244.136 167.982 243.632L168.72 242.3C169.26 242.78 169.8 243.128 170.34 243.344C170.88 243.56 171.426 243.668 171.978 243.668C172.53 243.668 172.98 243.566 173.328 243.362C173.676 243.146 173.85 242.834 173.85 242.426C173.85 242.138 173.76 241.916 173.58 241.76C173.4 241.604 173.136 241.478 172.788 241.382C172.452 241.286 172.044 241.166 171.564 241.022C170.892 240.818 170.328 240.608 169.872 240.392C169.416 240.164 169.074 239.888 168.846 239.564C168.618 239.24 168.504 238.826 168.504 238.322C168.504 237.41 168.846 236.702 169.53 236.198C170.214 235.682 171.108 235.424 172.212 235.424C172.896 235.424 173.526 235.532 174.102 235.748C174.69 235.952 175.206 236.276 175.65 236.72L174.804 238.034C173.988 237.29 173.088 236.918 172.104 236.918C171.672 236.918 171.27 237.002 170.898 237.17C170.538 237.338 170.358 237.65 170.358 238.106C170.358 238.49 170.52 238.766 170.844 238.934C171.168 239.102 171.648 239.282 172.284 239.474C173.004 239.69 173.622 239.906 174.138 240.122C174.666 240.326 175.068 240.596 175.344 240.932C175.632 241.256 175.776 241.706 175.776 242.282C175.776 243.194 175.434 243.908 174.75 244.424C174.066 244.928 173.166 245.18 172.05 245.18ZM181.809 245.18C180.837 245.18 179.985 244.958 179.253 244.514C178.521 244.07 177.951 243.482 177.543 242.75C177.135 242.006 176.931 241.196 176.931 240.32C176.931 239.432 177.135 238.616 177.543 237.872C177.951 237.128 178.521 236.534 179.253 236.09C179.985 235.646 180.843 235.424 181.827 235.424C182.811 235.424 183.663 235.652 184.383 236.108C185.103 236.552 185.655 237.14 186.039 237.872C186.435 238.604 186.633 239.39 186.633 240.23C186.633 240.53 186.615 240.77 186.579 240.95H179.037C179.073 241.502 179.223 241.988 179.487 242.408C179.763 242.816 180.105 243.14 180.513 243.38C180.933 243.608 181.389 243.722 181.881 243.722C182.409 243.722 182.907 243.59 183.375 243.326C183.843 243.062 184.167 242.714 184.347 242.282L186.039 242.768C185.715 243.476 185.175 244.058 184.419 244.514C183.675 244.958 182.805 245.18 181.809 245.18ZM178.983 239.636H184.671C184.623 239.096 184.467 238.622 184.203 238.214C183.939 237.794 183.597 237.47 183.177 237.242C182.769 237.002 182.313 236.882 181.809 236.882C181.317 236.882 180.861 237.002 180.441 237.242C180.033 237.47 179.697 237.794 179.433 238.214C179.169 238.622 179.019 239.096 178.983 239.636ZM193.541 237.296C192.773 237.32 192.089 237.5 191.489 237.836C190.901 238.16 190.481 238.628 190.229 239.24V245H188.249V235.586H190.085V237.692C190.409 237.044 190.835 236.528 191.363 236.144C191.891 235.748 192.449 235.532 193.037 235.496C193.145 235.496 193.241 235.496 193.325 235.496C193.409 235.496 193.481 235.502 193.541 235.514V237.296ZM136.473 263.218V265H127.707V252.22H136.311V254.002H129.723V257.638H135.429V259.312H129.723V263.218H136.473ZM139.416 255.586L141.648 258.808L141.81 259.114L141.972 258.808L144.186 255.586H146.328L142.944 260.302L146.364 265H144.222L141.972 261.796L141.81 261.508L141.648 261.796L139.398 265H137.256L140.676 260.32L137.292 255.586H139.416ZM153.051 265.18C152.295 265.18 151.629 265 151.053 264.64C150.477 264.28 150.021 263.812 149.685 263.236V268.834H147.705V255.586H149.451V257.278C149.811 256.714 150.279 256.264 150.855 255.928C151.431 255.592 152.073 255.424 152.781 255.424C153.645 255.424 154.407 255.652 155.067 256.108C155.739 256.552 156.267 257.146 156.651 257.89C157.035 258.622 157.227 259.42 157.227 260.284C157.227 261.196 157.047 262.024 156.687 262.768C156.327 263.5 155.835 264.088 155.211 264.532C154.587 264.964 153.867 265.18 153.051 265.18ZM152.403 263.488C152.967 263.488 153.453 263.338 153.861 263.038C154.281 262.726 154.605 262.33 154.833 261.85C155.073 261.358 155.193 260.836 155.193 260.284C155.193 259.708 155.061 259.18 154.797 258.7C154.545 258.22 154.197 257.836 153.753 257.548C153.321 257.26 152.823 257.116 152.259 257.116C151.923 257.116 151.569 257.2 151.197 257.368C150.837 257.536 150.519 257.758 150.243 258.034C149.967 258.31 149.781 258.622 149.685 258.97V261.436C149.925 262.012 150.291 262.498 150.783 262.894C151.287 263.29 151.827 263.488 152.403 263.488ZM163.273 265.18C162.301 265.18 161.449 264.958 160.717 264.514C159.985 264.07 159.415 263.482 159.007 262.75C158.599 262.006 158.395 261.196 158.395 260.32C158.395 259.432 158.599 258.616 159.007 257.872C159.415 257.128 159.985 256.534 160.717 256.09C161.449 255.646 162.307 255.424 163.291 255.424C164.275 255.424 165.127 255.652 165.847 256.108C166.567 256.552 167.119 257.14 167.503 257.872C167.899 258.604 168.097 259.39 168.097 260.23C168.097 260.53 168.079 260.77 168.043 260.95H160.501C160.537 261.502 160.687 261.988 160.951 262.408C161.227 262.816 161.569 263.14 161.977 263.38C162.397 263.608 162.853 263.722 163.345 263.722C163.873 263.722 164.371 263.59 164.839 263.326C165.307 263.062 165.631 262.714 165.811 262.282L167.503 262.768C167.179 263.476 166.639 264.058 165.883 264.514C165.139 264.958 164.269 265.18 163.273 265.18ZM160.447 259.636H166.135C166.087 259.096 165.931 258.622 165.667 258.214C165.403 257.794 165.061 257.47 164.641 257.242C164.233 257.002 163.777 256.882 163.273 256.882C162.781 256.882 162.325 257.002 161.905 257.242C161.497 257.47 161.161 257.794 160.897 258.214C160.633 258.622 160.483 259.096 160.447 259.636ZM175.004 257.296C174.236 257.32 173.552 257.5 172.952 257.836C172.364 258.16 171.944 258.628 171.692 259.24V265H169.712V255.586H171.548V257.692C171.872 257.044 172.298 256.528 172.826 256.144C173.354 255.748 173.912 255.532 174.5 255.496C174.608 255.496 174.704 255.496 174.788 255.496C174.872 255.496 174.944 255.502 175.004 255.514V257.296ZM176.445 254.038V251.86H178.425V254.038H176.445ZM176.445 265V255.586H178.425V265H176.445ZM185.07 265.18C184.098 265.18 183.246 264.958 182.514 264.514C181.782 264.07 181.212 263.482 180.804 262.75C180.396 262.006 180.192 261.196 180.192 260.32C180.192 259.432 180.396 258.616 180.804 257.872C181.212 257.128 181.782 256.534 182.514 256.09C183.246 255.646 184.104 255.424 185.088 255.424C186.072 255.424 186.924 255.652 187.644 256.108C188.364 256.552 188.916 257.14 189.3 257.872C189.696 258.604 189.894 259.39 189.894 260.23C189.894 260.53 189.876 260.77 189.84 260.95H182.298C182.334 261.502 182.484 261.988 182.748 262.408C183.024 262.816 183.366 263.14 183.774 263.38C184.194 263.608 184.65 263.722 185.142 263.722C185.67 263.722 186.168 263.59 186.636 263.326C187.104 263.062 187.428 262.714 187.608 262.282L189.3 262.768C188.976 263.476 188.436 264.058 187.68 264.514C186.936 264.958 186.066 265.18 185.07 265.18ZM182.244 259.636H187.932C187.884 259.096 187.728 258.622 187.464 258.214C187.2 257.794 186.858 257.47 186.438 257.242C186.03 257.002 185.574 256.882 185.07 256.882C184.578 256.882 184.122 257.002 183.702 257.242C183.294 257.47 182.958 257.794 182.694 258.214C182.43 258.622 182.28 259.096 182.244 259.636ZM199.951 265H197.971V259.726C197.971 258.838 197.827 258.196 197.539 257.8C197.263 257.392 196.849 257.188 196.297 257.188C195.913 257.188 195.529 257.284 195.145 257.476C194.773 257.668 194.437 257.932 194.137 258.268C193.837 258.604 193.621 258.982 193.489 259.402V265H191.509V255.586H193.309V257.476C193.669 256.852 194.191 256.354 194.875 255.982C195.559 255.61 196.315 255.424 197.143 255.424C197.887 255.424 198.463 255.604 198.871 255.964C199.279 256.312 199.561 256.774 199.717 257.35C199.873 257.926 199.951 258.562 199.951 259.258V265ZM206.516 265.18C205.544 265.18 204.692 264.958 203.96 264.514C203.228 264.058 202.658 263.458 202.25 262.714C201.842 261.97 201.638 261.16 201.638 260.284C201.638 259.408 201.836 258.604 202.232 257.872C202.64 257.128 203.204 256.534 203.924 256.09C204.656 255.646 205.52 255.424 206.516 255.424C207.488 255.424 208.322 255.64 209.018 256.072C209.726 256.492 210.254 257.056 210.602 257.764L208.676 258.376C208.46 257.98 208.154 257.674 207.758 257.458C207.374 257.23 206.948 257.116 206.48 257.116C205.952 257.116 205.472 257.254 205.04 257.53C204.62 257.794 204.284 258.166 204.032 258.646C203.792 259.126 203.672 259.672 203.672 260.284C203.672 260.896 203.798 261.442 204.05 261.922C204.314 262.402 204.656 262.786 205.076 263.074C205.508 263.35 205.982 263.488 206.498 263.488C206.978 263.488 207.434 263.362 207.866 263.11C208.298 262.858 208.586 262.552 208.73 262.192L210.674 262.768C210.362 263.476 209.84 264.058 209.108 264.514C208.376 264.958 207.512 265.18 206.516 265.18ZM216.482 265.18C215.51 265.18 214.658 264.958 213.926 264.514C213.194 264.07 212.624 263.482 212.216 262.75C211.808 262.006 211.604 261.196 211.604 260.32C211.604 259.432 211.808 258.616 212.216 257.872C212.624 257.128 213.194 256.534 213.926 256.09C214.658 255.646 215.516 255.424 216.5 255.424C217.484 255.424 218.336 255.652 219.056 256.108C219.776 256.552 220.328 257.14 220.712 257.872C221.108 258.604 221.306 259.39 221.306 260.23C221.306 260.53 221.288 260.77 221.252 260.95H213.71C213.746 261.502 213.896 261.988 214.16 262.408C214.436 262.816 214.778 263.14 215.186 263.38C215.606 263.608 216.062 263.722 216.554 263.722C217.082 263.722 217.58 263.59 218.048 263.326C218.516 263.062 218.84 262.714 219.02 262.282L220.712 262.768C220.388 263.476 219.848 264.058 219.092 264.514C218.348 264.958 217.478 265.18 216.482 265.18ZM213.656 259.636H219.344C219.296 259.096 219.14 258.622 218.876 258.214C218.612 257.794 218.27 257.47 217.85 257.242C217.442 257.002 216.986 256.882 216.482 256.882C215.99 256.882 215.534 257.002 215.114 257.242C214.706 257.47 214.37 257.794 214.106 258.214C213.842 258.622 213.692 259.096 213.656 259.636Z" fill="#F8F9FA"/>
<path d="M151.428 128V115.22H153.444V126.218H160.302V128H151.428ZM165.866 128.18C164.894 128.18 164.042 127.958 163.31 127.514C162.578 127.07 162.008 126.482 161.6 125.75C161.192 125.006 160.988 124.196 160.988 123.32C160.988 122.432 161.192 121.616 161.6 120.872C162.008 120.128 162.578 119.534 163.31 119.09C164.042 118.646 164.9 118.424 165.884 118.424C166.868 118.424 167.72 118.652 168.44 119.108C169.16 119.552 169.712 120.14 170.096 120.872C170.492 121.604 170.69 122.39 170.69 123.23C170.69 123.53 170.672 123.77 170.636 123.95H163.094C163.13 124.502 163.28 124.988 163.544 125.408C163.82 125.816 164.162 126.14 164.57 126.38C164.99 126.608 165.446 126.722 165.938 126.722C166.466 126.722 166.964 126.59 167.432 126.326C167.9 126.062 168.224 125.714 168.404 125.282L170.096 125.768C169.772 126.476 169.232 127.058 168.476 127.514C167.732 127.958 166.862 128.18 165.866 128.18ZM163.04 122.636H168.728C168.68 122.096 168.524 121.622 168.26 121.214C167.996 120.794 167.654 120.47 167.234 120.242C166.826 120.002 166.37 119.882 165.866 119.882C165.374 119.882 164.918 120.002 164.498 120.242C164.09 120.47 163.754 120.794 163.49 121.214C163.226 121.622 163.076 122.096 163.04 122.636ZM176.031 128.09C175.179 128.09 174.429 127.868 173.781 127.424C173.145 126.98 172.641 126.398 172.269 125.678C171.909 124.946 171.729 124.154 171.729 123.302C171.729 122.414 171.915 121.598 172.287 120.854C172.659 120.11 173.169 119.522 173.817 119.09C174.477 118.646 175.239 118.424 176.103 118.424C176.859 118.424 177.519 118.604 178.083 118.964C178.659 119.324 179.133 119.792 179.505 120.368V118.586H181.251V127.73C181.251 128.642 181.029 129.416 180.585 130.052C180.153 130.688 179.559 131.174 178.803 131.51C178.047 131.846 177.195 132.014 176.247 132.014C175.203 132.014 174.333 131.834 173.637 131.474C172.953 131.114 172.377 130.622 171.909 129.998L173.025 128.954C173.385 129.458 173.847 129.842 174.411 130.106C174.987 130.37 175.599 130.502 176.247 130.502C176.787 130.502 177.285 130.4 177.741 130.196C178.209 130.004 178.581 129.704 178.857 129.296C179.133 128.888 179.271 128.366 179.271 127.73V126.29C178.935 126.854 178.473 127.298 177.885 127.622C177.297 127.934 176.679 128.09 176.031 128.09ZM176.679 126.488C177.075 126.488 177.453 126.404 177.813 126.236C178.173 126.056 178.479 125.822 178.731 125.534C178.995 125.246 179.175 124.94 179.271 124.616V122.15C179.031 121.55 178.653 121.064 178.137 120.692C177.633 120.308 177.099 120.116 176.535 120.116C175.959 120.116 175.461 120.272 175.041 120.584C174.633 120.896 174.315 121.304 174.087 121.808C173.859 122.3 173.745 122.816 173.745 123.356C173.745 123.932 173.871 124.46 174.123 124.94C174.387 125.408 174.741 125.786 175.185 126.074C175.629 126.35 176.127 126.488 176.679 126.488ZM182.942 125.246C182.942 124.646 183.11 124.124 183.446 123.68C183.782 123.224 184.25 122.876 184.85 122.636C185.462 122.384 186.164 122.258 186.956 122.258C187.376 122.258 187.802 122.294 188.234 122.366C188.678 122.426 189.068 122.516 189.404 122.636V122.042C189.404 121.382 189.206 120.866 188.81 120.494C188.414 120.122 187.844 119.936 187.1 119.936C186.584 119.936 186.086 120.026 185.606 120.206C185.126 120.386 184.628 120.65 184.112 120.998L183.446 119.666C184.07 119.258 184.694 118.952 185.318 118.748C185.954 118.532 186.62 118.424 187.316 118.424C188.576 118.424 189.566 118.76 190.286 119.432C191.018 120.092 191.384 121.034 191.384 122.258V125.768C191.384 125.996 191.42 126.158 191.492 126.254C191.576 126.35 191.714 126.404 191.906 126.416V128C191.726 128.036 191.564 128.06 191.42 128.072C191.276 128.084 191.156 128.09 191.06 128.09C190.628 128.09 190.304 127.988 190.088 127.784C189.884 127.568 189.764 127.328 189.728 127.064L189.674 126.524C189.266 127.052 188.744 127.46 188.108 127.748C187.472 128.036 186.83 128.18 186.182 128.18C185.558 128.18 185 128.054 184.508 127.802C184.016 127.538 183.632 127.184 183.356 126.74C183.08 126.296 182.942 125.798 182.942 125.246ZM188.936 125.822C189.248 125.51 189.404 125.216 189.404 124.94V123.86C188.696 123.596 187.976 123.464 187.244 123.464C186.524 123.464 185.936 123.614 185.48 123.914C185.036 124.202 184.813 124.592 184.813 125.084C184.813 125.492 184.976 125.87 185.3 126.218C185.636 126.554 186.116 126.722 186.74 126.722C187.16 126.722 187.568 126.638 187.964 126.47C188.36 126.302 188.684 126.086 188.936 125.822ZM193.804 114.86H195.784V125.282C195.784 125.762 195.856 126.068 196 126.2C196.144 126.332 196.324 126.398 196.54 126.398C196.78 126.398 197.008 126.374 197.224 126.326C197.44 126.278 197.62 126.218 197.764 126.146L198.052 127.712C197.764 127.832 197.422 127.934 197.026 128.018C196.63 128.102 196.276 128.144 195.964 128.144C195.292 128.144 194.764 127.958 194.38 127.586C193.996 127.202 193.804 126.674 193.804 126.002V114.86ZM146.014 148V135.22H150.55C151.93 135.22 153.076 135.508 153.988 136.084C154.912 136.648 155.608 137.416 156.076 138.388C156.544 139.348 156.778 140.416 156.778 141.592C156.778 142.888 156.52 144.016 156.004 144.976C155.488 145.936 154.762 146.68 153.826 147.208C152.902 147.736 151.81 148 150.55 148H146.014ZM154.726 141.592C154.726 140.692 154.558 139.9 154.222 139.216C153.898 138.532 153.424 137.992 152.8 137.596C152.188 137.2 151.438 137.002 150.55 137.002H148.03V146.218H150.55C151.45 146.218 152.206 146.014 152.818 145.606C153.442 145.198 153.916 144.646 154.24 143.95C154.564 143.254 154.726 142.468 154.726 141.592ZM162.913 148.18C161.941 148.18 161.089 147.958 160.357 147.514C159.625 147.07 159.055 146.482 158.647 145.75C158.239 145.006 158.035 144.196 158.035 143.32C158.035 142.432 158.239 141.616 158.647 140.872C159.055 140.128 159.625 139.534 160.357 139.09C161.089 138.646 161.947 138.424 162.931 138.424C163.915 138.424 164.767 138.652 165.487 139.108C166.207 139.552 166.759 140.14 167.143 140.872C167.539 141.604 167.737 142.39 167.737 143.23C167.737 143.53 167.719 143.77 167.683 143.95H160.141C160.177 144.502 160.327 144.988 160.591 145.408C160.867 145.816 161.209 146.14 161.617 146.38C162.037 146.608 162.493 146.722 162.985 146.722C163.513 146.722 164.011 146.59 164.479 146.326C164.947 146.062 165.271 145.714 165.451 145.282L167.143 145.768C166.819 146.476 166.279 147.058 165.523 147.514C164.779 147.958 163.909 148.18 162.913 148.18ZM160.087 142.636H165.775C165.727 142.096 165.571 141.622 165.307 141.214C165.043 140.794 164.701 140.47 164.281 140.242C163.873 140.002 163.417 139.882 162.913 139.882C162.421 139.882 161.965 140.002 161.545 140.242C161.137 140.47 160.801 140.794 160.537 141.214C160.273 141.622 160.123 142.096 160.087 142.636ZM172.7 148.18C171.908 148.18 171.158 148.048 170.45 147.784C169.742 147.52 169.136 147.136 168.632 146.632L169.37 145.3C169.91 145.78 170.45 146.128 170.99 146.344C171.53 146.56 172.076 146.668 172.628 146.668C173.18 146.668 173.63 146.566 173.978 146.362C174.326 146.146 174.5 145.834 174.5 145.426C174.5 145.138 174.41 144.916 174.23 144.76C174.05 144.604 173.786 144.478 173.438 144.382C173.102 144.286 172.694 144.166 172.214 144.022C171.542 143.818 170.978 143.608 170.522 143.392C170.066 143.164 169.724 142.888 169.496 142.564C169.268 142.24 169.154 141.826 169.154 141.322C169.154 140.41 169.496 139.702 170.18 139.198C170.864 138.682 171.758 138.424 172.862 138.424C173.546 138.424 174.176 138.532 174.752 138.748C175.34 138.952 175.856 139.276 176.3 139.72L175.454 141.034C174.638 140.29 173.738 139.918 172.754 139.918C172.322 139.918 171.92 140.002 171.548 140.17C171.188 140.338 171.008 140.65 171.008 141.106C171.008 141.49 171.17 141.766 171.494 141.934C171.818 142.102 172.298 142.282 172.934 142.474C173.654 142.69 174.272 142.906 174.788 143.122C175.316 143.326 175.718 143.596 175.994 143.932C176.282 144.256 176.426 144.706 176.426 145.282C176.426 146.194 176.084 146.908 175.4 147.424C174.716 147.928 173.816 148.18 172.7 148.18ZM178.194 137.038V134.86H180.174V137.038H178.194ZM178.194 148V138.586H180.174V148H178.194ZM186.279 148.09C185.427 148.09 184.677 147.868 184.029 147.424C183.393 146.98 182.889 146.398 182.517 145.678C182.157 144.946 181.977 144.154 181.977 143.302C181.977 142.414 182.163 141.598 182.535 140.854C182.907 140.11 183.417 139.522 184.065 139.09C184.725 138.646 185.487 138.424 186.351 138.424C187.107 138.424 187.767 138.604 188.331 138.964C188.907 139.324 189.381 139.792 189.753 140.368V138.586H191.499V147.73C191.499 148.642 191.277 149.416 190.833 150.052C190.401 150.688 189.807 151.174 189.051 151.51C188.295 151.846 187.443 152.014 186.495 152.014C185.451 152.014 184.581 151.834 183.885 151.474C183.201 151.114 182.625 150.622 182.157 149.998L183.273 148.954C183.633 149.458 184.095 149.842 184.659 150.106C185.235 150.37 185.847 150.502 186.495 150.502C187.035 150.502 187.533 150.4 187.989 150.196C188.457 150.004 188.829 149.704 189.105 149.296C189.381 148.888 189.519 148.366 189.519 147.73V146.29C189.183 146.854 188.721 147.298 188.133 147.622C187.545 147.934 186.927 148.09 186.279 148.09ZM186.927 146.488C187.323 146.488 187.701 146.404 188.061 146.236C188.421 146.056 188.727 145.822 188.979 145.534C189.243 145.246 189.423 144.94 189.519 144.616V142.15C189.279 141.55 188.901 141.064 188.385 140.692C187.881 140.308 187.347 140.116 186.783 140.116C186.207 140.116 185.709 140.272 185.289 140.584C184.881 140.896 184.563 141.304 184.335 141.808C184.107 142.3 183.993 142.816 183.993 143.356C183.993 143.932 184.119 144.46 184.371 144.94C184.635 145.408 184.989 145.786 185.433 146.074C185.877 146.35 186.375 146.488 186.927 146.488ZM202.316 148H200.336V142.726C200.336 141.838 200.192 141.196 199.904 140.8C199.628 140.392 199.214 140.188 198.662 140.188C198.278 140.188 197.894 140.284 197.51 140.476C197.138 140.668 196.802 140.932 196.502 141.268C196.202 141.604 195.986 141.982 195.854 142.402V148H193.874V138.586H195.674V140.476C196.034 139.852 196.556 139.354 197.24 138.982C197.924 138.61 198.68 138.424 199.508 138.424C200.252 138.424 200.828 138.604 201.236 138.964C201.644 139.312 201.926 139.774 202.082 140.35C202.238 140.926 202.316 141.562 202.316 142.258V148Z" fill="#F8F9FA"/>
</svg>
