<svg width="24" height="24" viewBox="0 0 24 24" fill="none" xmlns="http://www.w3.org/2000/svg">
<path fill-rule="evenodd" clip-rule="evenodd" d="M12 1.5C6.20125 1.5 1.5 6.20125 1.5 12C1.5 17.7987 6.20125 22.5 12 22.5C17.7987 22.5 22.5 17.7987 22.5 12C22.5 6.20125 17.7987 1.5 12 1.5ZM3 12C3 11.1833 3.1088 10.392 3.31269 9.63982C3.48023 10.0008 3.68454 10.3378 3.88978 10.6764C4.10613 11.0332 4.32351 11.3918 4.49998 11.782C4.73107 12.296 5.16706 12.4645 5.60422 12.6335C5.99793 12.7857 6.39258 12.9383 6.63935 13.3439C6.88532 13.748 6.86059 14.2094 6.83576 14.6724C6.81394 15.0794 6.79205 15.4878 6.95388 15.8597C7.10922 16.2164 7.39502 16.4008 7.68718 16.5893C7.86755 16.7057 8.05035 16.8236 8.20638 16.9847C8.56313 17.3486 8.60866 17.8272 8.65408 18.3046L8.65408 18.3046L8.65409 18.3046L8.65409 18.3047C8.66184 18.3862 8.66959 18.4676 8.67888 18.5484C8.75077 19.2007 8.86746 19.8472 9.0281 20.4834L9.0321 20.4991C5.51987 19.2726 3 15.9304 3 12ZM4.32063 8.21871C4.25058 8.02448 4.18215 7.83476 4.09905 7.68678C4.70954 6.57093 5.54952 5.59855 6.55551 4.83313C6.53759 5.05173 6.55674 5.27212 6.61244 5.48493C6.67968 5.74176 6.79874 5.98213 6.96232 6.19123C7.05798 6.31432 7.17313 6.40865 7.28385 6.49934L7.28385 6.49935C7.49484 6.67219 7.68972 6.83183 7.70294 7.15217C7.72263 7.62092 7.64951 7.86092 7.34294 8.19045C7.27996 8.25722 7.22575 8.3373 7.17172 8.4171L7.17172 8.41711L7.17172 8.41711C7.11196 8.50538 7.05244 8.5933 6.98154 8.66248L6.95889 8.68454C6.89829 8.74361 6.87284 8.76843 6.84234 8.78129C6.82024 8.79061 6.7955 8.79364 6.75283 8.79888C6.72066 8.80282 6.6783 8.80802 6.61919 8.81811C6.21382 8.88658 5.85874 8.98609 5.47953 9.09236L5.47948 9.09237L5.47935 9.09241L5.47865 9.09261C5.40387 9.11356 5.32815 9.13478 5.25091 9.15608C4.71237 9.30492 4.51052 8.74523 4.32063 8.21871ZM8.65357 4.29795C8.731 4.13767 8.65378 3.91135 8.519 3.69798C8.68803 3.62702 8.85969 3.56107 9.03378 3.50031C9.14312 3.57657 9.26451 3.63086 9.40924 3.64028C9.51499 3.64739 9.61872 3.63281 9.72026 3.61853C9.91982 3.59048 10.1109 3.56361 10.2924 3.70497C10.3721 3.76646 10.4459 3.83225 10.5188 3.89717L10.5188 3.89718C10.7237 4.07966 10.9208 4.25525 11.2181 4.30918C11.6081 4.37996 12.0211 4.15215 12.1177 3.75325C12.1751 3.52058 12.1216 3.27544 12.0688 3.03278L12.0617 3.00021C13.8901 3.01248 15.5891 3.57006 17.0041 4.51843C16.9072 4.47451 16.7885 4.47503 16.6411 4.54362C16.3566 4.6758 15.9535 5.01237 15.9202 5.34612C15.8822 5.72487 16.441 5.7783 16.7063 5.7783C17.1043 5.7783 17.5083 5.60018 17.3799 5.13987C17.3216 4.93143 17.2412 4.71341 17.109 4.58984C17.4103 4.79795 17.6982 5.02396 17.9714 5.26632C17.9661 5.27159 17.9608 5.27694 17.9555 5.28237C17.8765 5.3647 17.7937 5.44202 17.7115 5.51878C17.513 5.70423 17.3179 5.88645 17.1873 6.12846C17.0569 6.36893 16.9102 6.48377 16.6463 6.54612C16.6151 6.55348 16.5829 6.55984 16.5503 6.56627C16.4317 6.58971 16.3089 6.61397 16.2132 6.69049C15.8738 6.95768 16.0669 7.5994 16.3885 7.79252C16.7949 8.0358 17.3977 7.92143 17.7043 7.57409C17.7706 7.49881 17.8294 7.40819 17.8888 7.31651C18.0442 7.07705 18.2042 6.83031 18.5157 6.83065C18.7053 6.83026 18.8875 6.90451 19.0229 7.03737C19.1579 7.17702 19.1704 7.3102 19.185 7.46694C19.1897 7.51696 19.1946 7.56938 19.2038 7.62518C19.2712 8.03639 19.6351 7.8133 19.8548 7.60348C20.0142 7.88759 20.1586 8.18123 20.2869 8.48332C20.2692 8.50888 20.2517 8.53462 20.2343 8.56022C20.0141 8.88402 19.8096 9.1848 19.2693 8.80733C19.1505 8.72446 19.0472 8.62876 18.9454 8.53438C18.7488 8.3522 18.5576 8.17492 18.2695 8.10421C17.9393 8.02318 17.6021 8.08501 17.2731 8.14536C17.2214 8.15483 17.1699 8.16427 17.1187 8.17312C17.0576 8.18366 16.9949 8.19338 16.9314 8.20324C16.5487 8.26257 16.1349 8.32672 15.8559 8.6053C15.7051 8.75518 15.5884 8.92962 15.4708 9.10528C15.3431 9.29605 15.2145 9.48827 15.0403 9.65202C14.3929 10.2614 14.1196 10.9266 14.5387 11.7881C14.9418 12.6164 15.7851 13.0659 16.695 13.0069C16.8875 12.994 17.0816 12.9599 17.2675 12.9273C17.9446 12.8083 18.5119 12.7086 18.4917 13.7278C18.4823 14.1872 18.5784 14.5059 18.7195 14.933C18.8224 15.243 18.8388 15.5454 18.8558 15.8584C18.8604 15.9429 18.865 16.0282 18.8714 16.1147C18.9048 16.5741 18.9692 17.0672 19.0982 17.5335C17.4511 19.6434 14.8839 21 12 21C11.4897 21 10.9893 20.9575 10.5022 20.8759L10.505 20.8019C10.5086 20.7036 10.5118 20.6141 10.522 20.5467C10.6359 19.8014 11.009 19.0725 11.5125 18.5147C11.7183 18.287 11.9556 18.0897 12.1929 17.8924C12.529 17.613 12.8652 17.3336 13.1114 16.9678C13.5206 16.3594 13.6439 15.5386 13.4742 14.8265C13.2992 14.0897 12.5454 13.6965 11.8448 13.331C11.5452 13.1747 11.2553 13.0235 11.0245 12.8526C10.9093 12.7673 10.7974 12.6699 10.6846 12.5717L10.6846 12.5717L10.6846 12.5717L10.6846 12.5717C10.3638 12.2924 10.036 12.0071 9.6056 11.9765C9.50353 11.9692 9.40777 11.9731 9.31366 11.9769C9.16054 11.9832 9.01176 11.9892 8.84716 11.9465C8.77029 11.9267 8.69865 11.9001 8.62843 11.874L8.62841 11.874C8.47597 11.8174 8.33026 11.7633 8.15247 11.7867C7.9393 11.8147 7.7607 11.9305 7.58322 12.0456C7.35679 12.1924 7.13219 12.338 6.83997 12.2986C6.34544 12.232 5.83591 11.6536 5.72341 11.1825C5.57904 10.5769 6.0581 10.3805 6.57138 10.3265C6.7856 10.304 7.02607 10.2797 7.23185 10.358C7.38222 10.4139 7.48855 10.5205 7.59499 10.6272C7.68035 10.7128 7.76577 10.7984 7.87404 10.8581C8.33013 11.108 8.42247 10.7086 8.35263 10.3036C8.34128 10.2377 8.32973 10.1761 8.31884 10.118L8.31882 10.1179L8.31882 10.1179C8.22944 9.64123 8.185 9.40419 8.66716 9.03233L8.73412 8.9812C9.07933 8.71838 9.35918 8.50531 9.30279 8.01936C9.29106 7.91937 9.26516 7.83742 9.24123 7.76168C9.19245 7.60731 9.15183 7.47874 9.25591 7.27592C9.3713 7.05019 9.68418 6.84611 9.89473 6.70877L9.90701 6.70076C10.068 6.59572 10.3381 6.52413 10.6194 6.44954C11.2871 6.2725 12.0183 6.07864 11.5054 5.38076C11.2912 5.08967 10.8961 4.56936 10.5211 4.49811C10.2023 4.43787 10.0041 4.66045 9.80715 4.8816C9.71445 4.98568 9.62204 5.08945 9.51747 5.16326C9.17997 5.40186 8.52279 5.67279 8.18482 5.30389C7.88226 4.97357 8.11581 4.79083 8.35527 4.60345C8.47568 4.50924 8.59758 4.41385 8.65357 4.29795ZM20.3416 15.3852C20.7661 14.3402 21 13.1974 21 12C21 11.381 20.9375 10.7766 20.8185 10.1927C20.3796 10.4359 19.7922 10.5325 19.4292 10.4794C19.0581 10.4175 18.7074 10.267 18.4068 10.0406C18.3475 9.99685 18.2838 9.93306 18.2177 9.86688C18.1026 9.75163 17.9803 9.62912 17.8612 9.59249C17.6737 9.53483 17.0193 9.66468 16.8768 9.77765C16.7924 9.8446 16.7209 9.96541 16.6514 10.0829L16.6514 10.0829C16.6037 10.1636 16.5569 10.2427 16.5075 10.3017C16.4451 10.3759 16.3674 10.4456 16.2894 10.5155L16.2894 10.5155C16.1926 10.6023 16.0953 10.6896 16.0265 10.7864C15.4018 11.6701 16.9448 11.4283 17.3458 11.3655L17.3531 11.3644C18.1251 11.243 18.9332 11.3864 19.4845 11.9841C19.9333 12.4712 19.9456 12.9409 19.9597 13.4796C19.9635 13.6262 19.9675 13.7779 19.9804 13.9364C19.998 14.149 20.0741 14.3558 20.1507 14.5636C20.2174 14.7448 20.2844 14.9268 20.3132 15.1144C20.327 15.2043 20.3357 15.2947 20.3416 15.3852ZM11.909 16.0603C11.7271 16.3851 11.4006 16.6405 11.0838 16.8884C10.911 17.0236 10.741 17.1565 10.5989 17.2973C10.5715 17.3245 10.5364 17.3684 10.4969 17.4177C10.3791 17.565 10.2228 17.7603 10.1203 17.6995C10.0533 17.6598 10.0165 17.4196 9.98846 17.2361C9.97548 17.1512 9.96435 17.0785 9.95294 17.0433C9.76674 16.4815 9.41126 15.9911 8.93529 15.6394C8.8843 15.6008 8.80711 15.5581 8.72456 15.5125L8.72454 15.5125L8.72452 15.5125C8.56953 15.4269 8.39566 15.3309 8.34091 15.2315C8.27296 15.1116 8.29859 14.8735 8.31908 14.683C8.32687 14.6106 8.33391 14.5451 8.33482 14.4956C8.33684 14.3928 8.31974 14.2634 8.30208 14.1296C8.27462 13.9217 8.24577 13.7033 8.28513 13.5581C8.31448 13.4504 8.31023 13.4103 8.30894 13.3981C8.30864 13.3952 8.3085 13.3939 8.30899 13.3936C8.30942 13.3933 8.31032 13.3938 8.312 13.3948C8.32127 13.3999 8.35421 13.4183 8.46185 13.3945C8.59169 13.3654 9.12794 13.4597 9.28966 13.4934C9.4962 13.5364 9.6282 13.6481 9.77726 13.7744C9.81358 13.8051 9.85092 13.8367 9.8906 13.8684C10.4231 14.2954 11.0095 14.6259 11.6062 14.9531C12.0684 15.209 12.2043 15.5329 11.909 16.0603Z" fill="#6C757D"/>
</svg>
