<svg id="Layer_1" data-name="Layer 1" xmlns="http://www.w3.org/2000/svg" viewBox="0 0 409 598"><defs><style>.cls-1{fill:#d3d3d3;}</style></defs><title>grayElement</title><path class="cls-1" d="M397.47,247C380.8,203,313.14,184.69,295.9,156.33,264.85,105,330.81,49.26,259,11.58c-56.88-29.87-140.83,1.83-192.21,52C4.15,124.82-18.45,215,16.33,265a78.67,78.67,0,0,0,11.61,13.17l39.58,44.74C89.17,347.41,94,387.42,80.34,430.47c-3.66,11.53-9.79,26.78-11.18,29.36v.06c-18.74,40.84-20.51,83.76-1,111.8,29.55,42.41,220.94,43.92,233.31-74.24C312.51,392.65,448.85,382.82,397.47,247Z" transform="translate(0 0)"/></svg>