<svg width="409" height="598" viewBox="0 0 409 598" fill="none" xmlns="http://www.w3.org/2000/svg">
<path d="M397.469 247.018C380.805 202.968 313.136 184.692 295.904 156.334C264.847 104.973 330.811 49.2647 259.04 11.5795C202.165 -18.2914 118.211 13.407 66.8288 63.57C4.14723 124.824 -18.451 215.004 16.3301 264.978C19.8018 269.957 23.7155 274.305 27.9448 278.149L67.5232 322.892C89.1745 347.407 93.9719 387.424 80.3372 430.466C76.6761 441.998 70.5531 457.249 69.1644 459.832V459.895C50.4167 500.732 48.6492 543.647 68.1544 571.691C97.6962 614.102 289.086 615.615 301.459 497.455C312.505 392.654 448.852 382.823 397.469 247.018Z" fill="#D3D3D3"/>
</svg>
