<svg width="454" height="585" viewBox="0 0 454 585" fill="none" xmlns="http://www.w3.org/2000/svg">
<g id="Group11">
<path id="elemento-gray" d="M394.892 250.347C378.839 208.355 313.652 190.934 297.052 163.901C267.134 114.941 330.679 61.8353 261.539 25.9112C206.751 -2.56385 125.876 27.6533 76.3779 75.4721C15.9951 133.864 -5.77427 219.83 27.7311 267.468C31.0756 272.214 34.8457 276.359 38.9199 280.024L77.0468 322.676C97.904 346.045 102.525 384.192 89.3909 425.222C85.864 436.216 79.9656 450.753 78.6278 453.216V453.277C60.5677 492.204 58.865 533.115 77.6548 559.848C106.113 600.277 290.484 601.719 302.403 489.081C313.044 389.178 444.39 379.806 394.892 250.347Z" fill="#D3D3D3"/>
<path id="elemento-pink" d="M399.58 320.923C383.828 259.318 540.446 101.637 383.708 94.4802C318.716 91.4984 292.021 7.35018 186.988 0.968994C112.858 4.54723 64.8199 65.9736 85.9228 144.695C112.377 243.454 104.861 284.007 62.8359 326.111C20.8105 368.215 -4.92175 398.392 0.78985 437.693C9.44744 497.151 73.7781 545.04 130.353 539.851C186.928 534.663 192.339 500.073 257.211 501.206C319.798 502.28 368.617 544.443 414.971 498.821C455.614 458.745 408.538 356.049 399.58 320.923Z" fill="#CD3266"/>
</g>
</svg>
