<svg width="111" height="111" viewBox="0 0 111 111" fill="none" xmlns="http://www.w3.org/2000/svg">
<g filter="url(#filter0_d_10596_437)">
<rect x="6" y="5" width="91" height="91" rx="10" fill="#CC3366"/>
</g>
<g clip-path="url(#clip0_10596_437)">
<path d="M75.9502 78.9985H27.068C27.0499 78.8985 27.0375 78.7976 27.0307 78.6962C27.0307 74.793 26.9637 70.8867 27.059 66.9835C27.1797 62.0705 30.4733 57.7622 35.0993 56.2505C36.9726 55.6458 38.8593 55.0729 40.7267 54.444C41.1738 54.2929 41.3228 54.4077 41.4868 54.8235C43.6308 60.2656 45.7868 65.6981 47.9547 71.1211C48.0277 71.307 48.1186 71.4869 48.2528 71.7862C48.7416 68.3214 49.211 64.9836 49.6775 61.6699C49.6209 61.6246 49.5881 61.5792 49.5642 61.5838C48.8698 61.7002 48.5941 61.2693 48.372 60.704C48.1067 60.0449 47.5523 59.413 47.5479 58.766C47.5434 58.119 48.1291 57.5324 48.3601 56.8809C48.6075 56.184 49.0069 55.9739 49.7282 56.0147C51.1186 56.0827 52.5166 56.0495 53.9115 56.0238C54.3079 56.0238 54.5076 56.1492 54.6656 56.512C54.9413 57.15 55.2617 57.7728 55.5881 58.382C55.666 58.5069 55.7061 58.6522 55.7035 58.8C55.7008 58.9478 55.6555 59.0915 55.5732 59.2134C55.3333 59.6367 55.1455 60.0917 54.9204 60.5241C54.6298 61.0834 54.524 61.8846 53.5046 61.4916L54.9279 71.3176L55.0516 71.3403L62.0382 53.8197L63.3794 54.3382C65.062 54.9898 66.7505 55.6232 68.4256 56.3034C72.9368 58.1175 75.9189 62.4258 75.9845 67.3282C76.0352 71.0802 75.9979 74.8353 75.9964 78.5888C75.986 78.7188 75.9637 78.8443 75.9502 78.9985ZM48.3258 77.1694L40.1678 56.4969L36.0814 57.7637C31.5657 59.162 28.8489 62.8717 28.837 67.6653C28.831 70.6454 28.831 73.6249 28.837 76.604C28.837 76.7854 28.8564 76.9668 28.8683 77.1694H48.3258ZM54.6984 77.1542H74.1484C74.1604 77.0031 74.1753 76.8897 74.1753 76.7778C74.1753 73.6123 74.2468 70.4423 74.1514 67.2783C74.0292 63.2436 72.138 60.2263 68.5687 58.441C66.8295 57.5702 64.9502 56.9897 63.1321 56.2807C63.1067 56.2702 63.065 56.2959 62.983 56.317C60.2339 63.2305 57.4709 70.1763 54.6939 77.1542H54.6984ZM51.6194 61.5581L51.448 61.5868C51.4078 61.7833 51.3556 61.9783 51.3273 62.1764C50.7893 66.0569 50.2468 69.9374 49.7222 73.8164C49.6343 74.471 49.4078 75.1089 49.7222 75.7998C50.3541 77.1784 50.3183 77.2041 51.8251 77.189C52.9979 77.1784 52.6865 77.387 53.1231 76.3107C53.3511 75.7514 53.6641 75.1134 53.5896 74.5587C53.0203 70.341 52.366 66.1355 51.7356 61.9269C51.7052 61.8009 51.6648 61.6775 51.6149 61.5581H51.6194ZM51.5091 59.7017H52.7356C52.9699 59.6893 53.1916 59.5901 53.3586 59.4229C53.5256 59.2557 53.6264 59.0322 53.6417 58.7947C53.6492 58.3246 53.1872 57.865 52.7073 57.865C51.8713 57.865 51.0337 57.865 50.1976 57.865C50.0486 57.865 49.7878 57.8937 49.7505 57.9784C49.6179 58.3215 49.4525 58.701 49.4882 59.0502C49.5359 59.5717 49.9145 59.7697 50.4465 59.7002C50.7989 59.6772 51.1523 59.6778 51.5046 59.7017H51.5091Z" fill="#F8F9FA"/>
<path d="M51.3052 54.187C48.7046 54.1674 46.4006 52.9247 44.3991 51.0261C42.0041 48.7585 40.3752 45.9634 39.2351 42.872C39.0697 42.4185 38.8954 42.228 38.3872 42.2355C37.4229 42.2507 36.788 41.6127 36.6599 40.6604C36.5317 39.708 36.3827 38.7995 36.2545 37.8668C36.1263 36.934 36.0325 36.0059 36.5988 35.188C36.8212 34.8411 37.1248 34.5555 37.4825 34.3566C37.9654 34.1268 38.1263 33.8033 38.2173 33.2984C39.4587 26.4111 45.4214 21.5828 52.2784 22.0242C58.3052 22.4127 62.1264 25.8503 64.335 31.3649C64.4851 31.73 64.6028 32.1079 64.6867 32.4942C64.8685 33.371 65.0846 34.1117 65.9848 34.6408C66.8849 35.1699 67.0474 36.2296 66.879 37.2666C66.718 38.2311 66.5387 39.193 66.341 40.1524C66.2615 40.6136 66.0518 41.0415 65.7372 41.3842C65.4227 41.7269 65.0169 41.9696 64.569 42.0829C64.1025 42.2189 63.9297 42.4729 63.7732 42.8856C62.5049 46.243 60.718 49.2543 57.9699 51.5945C56.11 53.1787 54.0027 54.1689 51.3052 54.187ZM39.7031 35.8093C39.366 35.7917 39.0283 35.7917 38.6912 35.8093C38.1651 35.8698 37.9222 36.2341 38.019 36.7012C38.1755 37.4571 38.3171 38.2129 38.4542 38.9688C38.5347 39.4117 38.4438 40.0345 38.7001 40.2552C38.9803 40.4956 39.5705 40.3943 40.025 40.3867C40.3469 40.3867 40.4632 40.5092 40.5675 40.8025C40.952 41.8803 41.3126 42.9748 41.7955 44.0088C43.0071 46.6134 44.6033 48.9354 46.9281 50.6602C48.1949 51.6005 49.5898 52.2309 51.1815 52.3231C53.4811 52.4546 55.3842 51.5053 57.0533 50.0193C59.7732 47.6006 61.4557 44.5076 62.5392 41.0594C62.7076 40.5213 62.9282 40.358 63.4572 40.3822C64.2456 40.4185 64.5302 40.1524 64.6837 39.38C64.8373 38.6075 64.9952 37.7912 65.1308 36.9945C65.2545 36.3021 64.873 35.829 64.1741 35.7942C63.9207 35.7821 63.6674 35.7942 63.4706 35.7942C63.2516 34.6438 63.0429 33.5766 62.8447 32.5063C62.7344 31.9092 62.4453 31.5025 61.8492 31.2863C61.3097 31.0913 60.806 30.7935 60.2888 30.5411L55.5899 28.2539C55.4587 28.458 55.3544 28.6303 55.2411 28.7981C53.2366 31.7655 50.5124 33.569 46.9505 33.8698C45.2501 34.0134 43.5332 33.9409 41.8238 33.9605C41.1949 33.9681 40.5675 33.9605 39.9192 33.9605C39.8477 34.5939 39.7791 35.1684 39.7016 35.8093H39.7031ZM40.3514 32.0785C40.5153 32.0906 40.6763 32.1117 40.8357 32.1117C42.4751 32.1117 44.1144 32.1117 45.7448 32.1117C49.2188 32.1223 51.8268 30.532 53.7255 27.6553C54.0921 27.0989 54.3872 26.4958 54.7314 25.8881L61.0384 28.9402C58.6197 25.1277 53.5869 23.1081 49.1487 24.074C45.0176 24.9765 40.8477 28.7497 40.3499 32.0785H40.3514Z" fill="#F8F9FA"/>
</g>
<defs>
<filter id="filter0_d_10596_437" x="0" y="0" width="111" height="111" filterUnits="userSpaceOnUse" color-interpolation-filters="sRGB">
<feFlood flood-opacity="0" result="BackgroundImageFix"/>
<feColorMatrix in="SourceAlpha" type="matrix" values="0 0 0 0 0 0 0 0 0 0 0 0 0 0 0 0 0 0 127 0" result="hardAlpha"/>
<feOffset dx="4" dy="5"/>
<feGaussianBlur stdDeviation="5"/>
<feComposite in2="hardAlpha" operator="out"/>
<feColorMatrix type="matrix" values="0 0 0 0 0 0 0 0 0 0 0 0 0 0 0 0 0 0 0.25 0"/>
<feBlend mode="normal" in2="BackgroundImageFix" result="effect1_dropShadow_10596_437"/>
<feBlend mode="normal" in="SourceGraphic" in2="effect1_dropShadow_10596_437" result="shape"/>
</filter>
<clipPath id="clip0_10596_437">
<rect width="49" height="57" fill="white" transform="translate(27 22)"/>
</clipPath>
</defs>
</svg>
