<svg width="111" height="111" viewBox="0 0 111 111" fill="none" xmlns="http://www.w3.org/2000/svg">
<g filter="url(#filter0_d_10598_438)">
<rect x="6" y="5" width="91" height="91" rx="10" fill="#CC3366"/>
</g>
<g clip-path="url(#clip0_10598_438)">
<path d="M37.4474 79C36.9986 78.7043 36.8784 78.2747 36.895 77.7558C36.9199 77.1629 36.895 76.5673 36.9033 75.9745C36.9392 74.3187 38.008 73.2321 39.6401 73.1847C40.0226 73.1721 40.4065 73.1847 40.8829 73.1847C40.8829 72.7662 40.8829 72.384 40.8829 72.0046C40.9008 70.127 41.9765 69.0292 43.8337 69.0167C45.5239 69.0041 47.214 69.0167 48.9042 69.0167H49.52V37.8029H36.438C36.4987 37.9703 36.5415 38.1209 36.605 38.2618C39.1237 43.8647 41.6465 49.4652 44.1734 55.0634C44.2859 55.2711 44.475 55.4255 44.6995 55.4931C45.4452 55.6828 45.8705 56.3551 45.5432 57.0582C45.0377 58.19 44.4698 59.2923 43.842 60.3599C43.2041 61.4075 42.1629 61.7799 40.9588 61.7757C37.4308 61.7618 33.9027 61.7757 30.3747 61.7757C29.6939 61.7757 29.0146 61.7855 28.3352 61.7632C27.1366 61.7213 26.2197 61.162 25.6398 60.1116C25.104 59.1352 24.6097 58.1462 24.1333 57.1446C23.7729 56.3844 24.1664 55.6856 24.9742 55.4986C25.0707 55.4747 25.1614 55.4316 25.2411 55.3717C25.3208 55.3118 25.3878 55.2364 25.4382 55.1499C28.0084 49.4699 30.5689 43.7856 33.1198 38.0972C33.1557 38.0163 33.1723 37.9256 33.2192 37.7708C32.6089 37.7708 32.0455 37.7917 31.4821 37.7708C29.6622 37.6913 28.5824 35.9379 29.4109 34.4021C29.5769 34.0685 29.8261 33.7843 30.1338 33.5774C30.4415 33.3705 30.7972 33.248 31.1659 33.222C31.4421 33.1969 31.7182 33.1927 31.9944 33.1927H49.5504C49.5504 32.2051 49.5698 31.2984 49.5338 30.3931C49.5269 30.2216 49.324 30.0319 49.1721 29.8938C47.8092 28.6509 47.2624 27.1221 47.7443 25.3269C48.2359 23.4981 49.4634 22.3766 51.3345 22.0697C52.2947 21.9103 53.2802 22.0794 54.1345 22.5502C54.9888 23.021 55.663 23.7665 56.05 24.6685C56.4357 25.5503 56.5255 26.5353 56.3059 27.4736C56.0863 28.4118 55.5693 29.2518 54.8335 29.8659C54.7019 29.9592 54.5964 30.0853 54.5272 30.2319C54.458 30.3786 54.4275 30.5408 54.4386 30.7028C54.4634 31.4993 54.4455 32.2972 54.4455 33.1913H55.1677C60.8079 33.1913 66.4491 33.1913 72.0913 33.1913C72.458 33.1782 72.825 33.2081 73.1849 33.2806C73.6782 33.4086 74.1126 33.7048 74.4145 34.1191C74.7165 34.5335 74.8674 35.0404 74.8419 35.5543C74.8325 36.0691 74.6464 36.5645 74.3155 36.9561C73.9845 37.3477 73.5293 37.611 73.0275 37.701C72.6642 37.7519 72.2978 37.7761 71.9311 37.7736C71.5665 37.7861 71.2006 37.7736 70.7532 37.7736C70.8526 38.0163 70.9217 38.2004 71.0018 38.3776C73.4873 43.8958 75.9673 49.4141 78.4417 54.9323C78.5909 55.2643 78.7179 55.4903 79.157 55.5544C79.3122 55.5813 79.459 55.6442 79.5861 55.7381C79.7131 55.8321 79.8168 55.9545 79.8891 56.0958C79.9614 56.237 80.0002 56.3933 80.0026 56.5523C80.0049 56.7113 79.9707 56.8687 79.9027 57.0121C79.3901 58.1603 78.8158 59.2793 78.1821 60.3641C77.5456 61.4103 76.5017 61.7799 75.2962 61.7757C71.2172 61.7618 67.1368 61.7757 63.0578 61.7757C62.9114 61.7757 62.7637 61.7757 62.6173 61.7618C61.4878 61.699 60.5971 61.1857 60.0379 60.2023C59.4787 59.2189 58.9664 58.1755 58.4776 57.1335C58.1172 56.3677 58.5107 55.6786 59.3254 55.4959C59.4155 55.4769 59.5011 55.4401 59.5771 55.3877C59.6532 55.3353 59.7183 55.2682 59.7686 55.1904C62.3462 49.4741 64.9182 43.7549 67.4848 38.033C67.5078 37.9566 67.5235 37.8781 67.5317 37.7987H54.4386C54.4386 38.6496 54.4386 39.4726 54.4386 40.3095C54.446 40.5321 54.4382 40.7549 54.4151 40.9763C54.353 41.4045 54.0533 41.6933 53.6695 41.6445C53.3809 41.6082 53.066 41.3515 52.8769 41.1046C52.7388 40.9317 52.7843 40.608 52.783 40.3514C52.7747 39.3303 52.7761 38.3092 52.783 37.2826C52.783 36.3592 53.0467 36.0941 53.9663 36.0941C59.9942 36.0941 66.0238 36.0941 72.0554 36.0941C72.2915 36.0941 72.5759 36.136 72.7458 36.023C72.9156 35.91 73.1435 35.6171 73.1421 35.4064C73.1421 35.2335 72.8728 35.0103 72.674 34.9043C72.5124 34.8192 72.279 34.8694 72.0774 34.8694H54.1555C52.986 34.8694 52.7747 34.656 52.7747 33.4745V30.9218H51.2033C51.2033 31.7434 51.2033 32.5957 51.2033 33.4326C51.2033 34.6602 51.0072 34.861 49.799 34.861H31.7252C31.0762 34.861 30.7889 35.0535 30.8221 35.4832C30.8676 36.0788 31.3178 36.0885 31.7555 36.0885H49.8363C51.0196 36.0885 51.2102 36.2824 51.2102 37.4751V68.9692H52.7816V68.2606C52.7816 60.6138 52.7816 52.966 52.7816 45.3172C52.7719 45.0771 52.7923 44.8366 52.8423 44.6017C52.9556 44.1664 53.2663 43.9614 53.7095 44.0074C53.8961 44.0147 54.073 44.0929 54.2049 44.2264C54.3367 44.3598 54.4138 44.5387 54.4206 44.7272C54.4398 44.9493 54.4458 45.1725 54.4386 45.3954V69.0097H55.0834C56.7556 69.0097 58.4278 69.0097 60.1 69.0097C62.0236 69.0097 63.0951 70.1075 63.1047 72.0548C63.1047 72.4035 63.1047 72.7522 63.1047 73.1791C63.5328 73.1791 63.9139 73.1707 64.2937 73.1791C65.9893 73.2167 67.0553 74.3089 67.0871 76.0275C67.0954 76.6022 67.0691 77.1783 67.0871 77.753C67.1106 78.2719 66.989 78.7015 66.5348 78.9972L37.4474 79ZM42.533 55.4777L34.8238 38.3274L27.1187 55.4777H42.533ZM69.1722 38.3274L61.474 55.4456H76.8579L69.1722 38.3274ZM38.5741 77.2954H65.4384V76.3915C65.4384 75.1361 65.1622 74.8571 63.9125 74.8571C59.0262 74.8571 54.1385 74.8571 49.2494 74.8571C49.0116 74.8626 48.7739 74.8407 48.541 74.7916C48.3561 74.76 48.1902 74.6581 48.0773 74.5069C47.9643 74.3557 47.9129 74.1666 47.9335 73.9784C47.9307 73.7799 48.0043 73.5882 48.1388 73.4435C48.2732 73.2988 48.458 73.2125 48.6543 73.2028C48.8552 73.1825 49.0572 73.1755 49.2591 73.1819H61.4491V72.3617C61.4491 70.9249 61.2116 70.6878 59.77 70.6878C54.7355 70.6878 49.7009 70.7143 44.6664 70.6752C42.5496 70.6585 42.4998 71.0239 42.5634 72.9782C42.5824 73.0502 42.6112 73.1192 42.649 73.1833C43.3394 73.1833 44.0574 73.1735 44.7686 73.1833C45.3416 73.193 45.6951 73.5055 45.7117 73.9784C45.7296 74.4763 45.372 74.8153 44.7741 74.853C44.6277 74.8627 44.48 74.853 44.3322 74.853C42.8133 74.853 41.2819 74.853 39.7575 74.853C39.0326 74.853 38.6432 75.1682 38.5824 75.8294C38.5368 76.3092 38.5714 76.7961 38.5714 77.2954H38.5741ZM43.6459 57.1907H26.0223C26.315 57.7779 26.6078 58.3066 26.8508 58.8646C27.2374 59.7545 27.8754 60.12 28.8433 60.12C31.5954 60.0865 34.3487 60.1074 37.1021 60.1074C38.4236 60.1074 39.7451 60.1074 41.0665 60.1074C41.7003 60.1074 42.2306 59.8968 42.5482 59.3263C42.9196 58.6414 43.2552 57.9453 43.6432 57.1907H43.6459ZM60.3721 57.1907C60.6634 57.7765 60.9548 58.3066 61.2006 58.8646C61.5886 59.7545 62.2334 60.1102 63.1986 60.1032C66.7957 60.0725 70.3928 60.0921 73.9913 60.0907C74.5436 60.0907 75.107 60.1604 75.6373 60.0516C76.0515 59.9665 76.5514 59.7489 76.7847 59.4239C77.2611 58.7599 77.5829 57.9844 77.9999 57.1921L60.3721 57.1907ZM52.0235 29.2298C53.5024 29.2214 54.7617 27.9451 54.7548 26.4623C54.7541 25.7213 54.4633 25.0107 53.946 24.4855C53.4286 23.9602 52.7266 23.663 51.9931 23.6585C51.6254 23.6605 51.2617 23.7362 50.9232 23.8813C50.5847 24.0264 50.2781 24.238 50.0212 24.5038C49.7642 24.7695 49.5621 25.0842 49.4266 25.4295C49.291 25.7748 49.2247 26.1439 49.2314 26.5153C49.2577 27.9869 50.5377 29.2298 52.0235 29.2298Z" fill="#F8F9FA"/>
</g>
<defs>
<filter id="filter0_d_10598_438" x="0" y="0" width="111" height="111" filterUnits="userSpaceOnUse" color-interpolation-filters="sRGB">
<feFlood flood-opacity="0" result="BackgroundImageFix"/>
<feColorMatrix in="SourceAlpha" type="matrix" values="0 0 0 0 0 0 0 0 0 0 0 0 0 0 0 0 0 0 127 0" result="hardAlpha"/>
<feOffset dx="4" dy="5"/>
<feGaussianBlur stdDeviation="5"/>
<feComposite in2="hardAlpha" operator="out"/>
<feColorMatrix type="matrix" values="0 0 0 0 0 0 0 0 0 0 0 0 0 0 0 0 0 0 0.25 0"/>
<feBlend mode="normal" in2="BackgroundImageFix" result="effect1_dropShadow_10598_438"/>
<feBlend mode="normal" in="SourceGraphic" in2="effect1_dropShadow_10598_438" result="shape"/>
</filter>
<clipPath id="clip0_10598_438">
<rect width="56" height="57" fill="white" transform="translate(24 22)"/>
</clipPath>
</defs>
</svg>
