<svg width="111" height="111" viewBox="0 0 111 111" fill="none" xmlns="http://www.w3.org/2000/svg">
<g filter="url(#filter0_d_10598_439)">
<rect x="6" y="5" width="91" height="91" rx="10" fill="#CC3366"/>
</g>
<g clip-path="url(#clip0_10598_439)">
<path d="M23.0001 74.1875C23.3835 73.3913 24.1399 73.6678 24.8504 73.5798V71.1807C24.8504 70.0975 25.0463 69.9005 26.1006 69.8942C26.8604 69.8942 27.621 69.8865 28.3822 69.8712C28.4134 69.8712 28.4447 69.8377 28.5384 69.7853V67.426C28.5384 66.3909 28.7468 66.1814 29.772 66.1688H30.3179V47.7932C30.0824 47.7932 29.847 47.7932 29.6115 47.7932C28.8031 47.7786 28.5447 47.525 28.5405 46.7225C28.5405 45.8677 28.5405 45.0128 28.5405 44.0825H26.0027C25.0921 44.0825 24.8525 43.8394 24.8504 42.9217C24.8504 41.8741 24.8504 40.8264 24.8504 39.7788C24.8504 38.9721 25.1359 38.6348 25.911 38.7039C26.8986 38.7919 27.6633 38.4399 28.4572 37.8826C35.8194 32.7142 43.1934 27.571 50.5792 22.4529C51.4814 21.8243 51.5168 21.8243 52.4419 22.4697C60.0028 27.7344 67.5622 33.0019 75.1203 38.2723C75.5119 38.5834 76.0065 38.7332 76.5038 38.6913C76.7632 38.6704 77.0238 38.6704 77.2831 38.6913C77.8082 38.7228 78.1166 39.0077 78.1311 39.5294C78.152 40.7601 78.152 41.9914 78.1311 43.2234C78.1311 43.7787 77.8082 44.049 77.2331 44.0615C76.3434 44.0825 75.4537 44.0846 74.564 44.0951C74.5494 44.0951 74.5369 44.1181 74.4535 44.1873C74.4535 44.9436 74.4535 45.7587 74.4535 46.5738C74.4535 47.5397 74.2285 47.7681 73.2867 47.7765H72.6616V66.1688C72.9596 66.1688 73.2492 66.1563 73.5367 66.1688C74.1618 66.2065 74.4431 66.4873 74.4514 67.1201C74.4639 68.0127 74.4514 68.9053 74.4514 69.8817H76.8726C77.9457 69.8817 78.1436 70.0786 78.1457 71.1493V73.5945C78.5145 73.5945 78.8083 73.5945 79.1 73.5945C79.6626 73.6196 79.9793 73.9067 79.9877 74.4536C80.0043 75.666 80.0043 76.8792 79.9877 78.0931C79.9877 78.6399 79.6585 78.9312 79.1084 78.9731C79.0167 78.9731 78.9229 78.9731 78.8312 78.9731C60.6147 78.9731 42.3974 78.9731 24.1795 78.9731C23.6711 78.9731 23.2731 78.8536 22.998 78.4136L23.0001 74.1875ZM30.3846 38.5803L30.42 38.7018H40.6298C40.7964 38.6924 40.9633 38.6924 41.1299 38.7018C41.345 38.7174 41.5458 38.8163 41.69 38.9777C41.8341 39.139 41.9105 39.3504 41.9029 39.5672C41.9008 39.7761 41.8182 39.976 41.6725 40.1249C41.5267 40.2738 41.3292 40.36 41.1215 40.3655C40.9362 40.3749 40.7505 40.3749 40.5652 40.3655H26.559V42.3476H76.4309V40.3655H44.8658C43.9949 40.3655 43.6157 40.1161 43.5969 39.5483C43.5781 38.9805 43.9886 38.685 44.8804 38.685H72.7553C72.4928 38.486 72.3532 38.3749 72.2053 38.266C65.4682 33.574 58.7311 28.8805 51.994 24.1857C51.6127 23.9175 51.3689 23.9238 50.9897 24.1857C46.364 27.425 41.7314 30.6538 37.0918 33.8722L30.3846 38.5803ZM47.8621 66.1793V47.7995H47.2183C46.2931 47.7995 46.0493 47.5418 46.0493 46.5905C46.0493 45.7755 46.0493 44.9604 46.0493 44.1181H39.4755C39.4588 44.2878 39.4296 44.4303 39.4296 44.5749C39.4296 45.3019 39.4296 46.029 39.4296 46.7561C39.4171 47.5208 39.1462 47.7827 38.3878 47.8037C38.1336 47.8037 37.8815 47.8037 37.6419 47.8037V66.1835C37.9627 66.1835 38.2399 66.1688 38.517 66.1835C39.1421 66.2212 39.4109 66.4978 39.4401 67.1368C39.4546 67.4909 39.4401 67.8451 39.4401 68.1992V69.8607H46.0618C46.0618 68.9325 46.0618 68.0399 46.0618 67.1368C46.0618 66.5083 46.3598 66.2128 46.9745 66.173C47.2558 66.1688 47.5475 66.1793 47.8621 66.1793ZM63.5707 69.8649C63.5707 68.9556 63.5707 68.1195 63.5707 67.2835C63.5707 66.4475 63.8395 66.1919 64.6833 66.1751C64.9146 66.1751 65.1459 66.1751 65.3689 66.1751V47.8247C65.2334 47.8142 65.1417 47.8037 65.0521 47.8016C63.6644 47.7702 63.5686 47.6738 63.5686 46.2888V44.1244H56.9509C56.9509 45.0128 56.9509 45.8677 56.9509 46.7204C56.9509 47.5083 56.6676 47.7828 55.8737 47.8016C55.6237 47.8016 55.3736 47.8247 55.1361 47.8351V66.1688H55.7779C56.7009 66.1814 56.9489 66.4391 56.9509 67.3841C56.9509 68.1992 56.9509 69.0142 56.9509 69.8586L63.5707 69.8649ZM78.2978 75.3273H24.717V77.2738H78.2978V75.3273ZM26.5527 73.5715H76.433V71.6166H26.5527V73.5715ZM35.8874 66.1479V47.8498H32.0765V66.1479H35.8874ZM70.9134 66.1479V47.8414H67.1129V66.1395L70.9134 66.1479ZM49.627 47.8351V66.1311H53.3921V47.8351H49.627ZM37.7377 67.8932H30.2595V69.8419H37.7377V67.8932ZM55.2632 67.8932H47.7621V69.8335H55.2632V67.8932ZM72.7533 69.8565V67.8807H65.2855V69.8565H72.7533ZM55.2507 44.1223H47.7496V46.0646H55.2507V44.1223ZM30.247 46.0835H37.7273V44.1265H30.247V46.0835ZM65.2792 46.0835H72.7533V44.1286H65.2792V46.0835Z" fill="#F8F9FA"/>
<path d="M51.5131 31.2968C51.8655 31.297 52.2144 31.3676 52.5394 31.5046C52.8645 31.6415 53.1593 31.842 53.4066 32.0945C53.654 32.3469 53.849 32.6462 53.9803 32.9751C54.1117 33.304 54.1768 33.6558 54.1718 34.0101C54.1631 34.7159 53.8796 35.3901 53.3821 35.888C52.8847 36.3859 52.2129 36.6678 51.511 36.6732C51.1587 36.6738 50.8097 36.6045 50.484 36.4694C50.1583 36.3342 49.8623 36.1359 49.6129 35.8856C49.3634 35.6354 49.1655 35.3382 49.0303 35.011C48.8952 34.6838 48.8255 34.333 48.8252 33.9787C48.8244 33.6245 48.8935 33.2736 49.0285 32.9465C49.1635 32.6194 49.3618 32.3224 49.6119 32.073C49.8619 31.8235 50.1587 31.6264 50.4851 31.4931C50.8115 31.3599 51.1609 31.2931 51.5131 31.2968ZM52.4987 33.9703C52.4965 33.7083 52.3923 33.4576 52.2085 33.2719C52.0246 33.0863 51.7757 32.9805 51.5152 32.9772C51.3815 32.9744 51.2486 32.9986 51.1244 33.0484C51.0002 33.0983 50.8872 33.1727 50.7922 33.2673C50.6971 33.3619 50.622 33.4747 50.5712 33.5991C50.5203 33.7234 50.4949 33.8568 50.4963 33.9913C50.5015 34.2535 50.6067 34.5036 50.7901 34.69C50.9736 34.8764 51.2212 34.9848 51.4818 34.9928C51.6155 34.9931 51.7478 34.9668 51.8713 34.9155C51.9948 34.8643 52.107 34.789 52.2015 34.694C52.2959 34.599 52.3708 34.4861 52.4218 34.3619C52.4728 34.2378 52.4989 34.1047 52.4987 33.9703Z" fill="#F8F9FA"/>
</g>
<defs>
<filter id="filter0_d_10598_439" x="0" y="0" width="111" height="111" filterUnits="userSpaceOnUse" color-interpolation-filters="sRGB">
<feFlood flood-opacity="0" result="BackgroundImageFix"/>
<feColorMatrix in="SourceAlpha" type="matrix" values="0 0 0 0 0 0 0 0 0 0 0 0 0 0 0 0 0 0 127 0" result="hardAlpha"/>
<feOffset dx="4" dy="5"/>
<feGaussianBlur stdDeviation="5"/>
<feComposite in2="hardAlpha" operator="out"/>
<feColorMatrix type="matrix" values="0 0 0 0 0 0 0 0 0 0 0 0 0 0 0 0 0 0 0.25 0"/>
<feBlend mode="normal" in2="BackgroundImageFix" result="effect1_dropShadow_10598_439"/>
<feBlend mode="normal" in="SourceGraphic" in2="effect1_dropShadow_10598_439" result="shape"/>
</filter>
<clipPath id="clip0_10598_439">
<rect width="57" height="57" fill="white" transform="translate(23 22)"/>
</clipPath>
</defs>
</svg>
