<svg fill="none" xmlns="http://www.w3.org/2000/svg" viewBox="0 0 176 96"><path d="M78.045 20.107v15.224L62.821 20.107v39.706h54.929L78.045 20.106ZM67.063 68.987c.511 0 .923.12 1.233.358.311.236.514.564.609.98h1.546c-.146-.825-.513-1.468-1.102-1.925-.588-.457-1.343-.685-2.265-.685-.775 0-1.44.168-1.996.504a3.359 3.359 0 0 0-1.283 1.404c-.3.6-.45 1.29-.45 2.073 0 .783.15 1.472.45 2.069.3.595.728 1.06 1.283 1.391.556.333 1.221.5 1.996.5.922 0 1.677-.223 2.265-.67.589-.446.956-1.063 1.102-1.853h-1.546a1.542 1.542 0 0 1-.609.928c-.31.223-.722.333-1.234.333-.709 0-1.264-.24-1.667-.718-.402-.479-.603-1.138-.603-1.98 0-.84.201-1.502.603-1.985.403-.482.958-.724 1.668-.724Z" fill="#C36"/><path fill-rule="evenodd" clip-rule="evenodd" d="M79.379 68.22c-.578-.337-1.247-.505-2.007-.505-.768 0-1.439.168-2.013.504a3.572 3.572 0 0 0-1.349 1.399c-.325.597-.488 1.286-.488 2.067 0 .784.163 1.472.488 2.068a3.565 3.565 0 0 0 1.35 1.398c.573.336 1.244.505 2.012.505.76 0 1.43-.169 2.007-.505a3.516 3.516 0 0 0 1.349-1.398c.322-.596.483-1.284.483-2.068 0-.781-.161-1.47-.483-2.067a3.522 3.522 0 0 0-1.35-1.398Zm-.258 5.45c-.435.483-1.018.724-1.75.724-.73 0-1.315-.241-1.754-.724-.439-.481-.658-1.144-.658-1.985 0-.84.22-1.501.658-1.985.439-.482 1.024-.724 1.755-.724.731 0 1.314.242 1.75.724.434.484.652 1.144.652 1.985 0 .841-.218 1.504-.653 1.985Z" fill="#C36"/><path d="m86.2 67.847 2.447 4.87 2.412-4.87h1.667v7.677h-1.404v-5.297l-2.138 4.2h-1.108l-2.139-4.2v5.297h-1.403v-7.677H86.2Z" fill="#C36"/><path fill-rule="evenodd" clip-rule="evenodd" d="M100.666 68.153c-.401-.204-.91-.307-1.524-.307h-2.84v7.679h1.403v-2.973h1.437c.629 0 1.144-.108 1.547-.324.401-.215.698-.5.888-.855.19-.354.285-.744.285-1.169 0-.445-.099-.848-.296-1.205a2.056 2.056 0 0 0-.9-.846Zm-.553 2.935c-.216.215-.569.324-1.058.324h-1.35v-2.425h1.35c.49 0 .842.108 1.058.325.215.215.323.512.323.892 0 .373-.108.669-.323.884ZM103.727 75.525l2.806-7.679h1.581l2.807 7.679h-1.492l-.614-1.778h-2.994l-.625 1.778h-1.469Zm3.586-6.065-1.108 3.191h2.227l-1.119-3.191Z" fill="#C36"/><path d="m119.003 73.254-3.608-5.407h-1.403v7.677h1.403v-5.396l3.608 5.396h1.404v-7.677h-1.404v5.407ZM126.681 71.389l1.69-3.542h1.568l-2.566 4.946v2.73h-1.404v-2.73l-2.578-4.947h1.591l1.699 3.543Z" fill="#C36"/><path fill-rule="evenodd" clip-rule="evenodd" d="m48.648 75.525 2.808-7.678h1.58l2.807 7.678h-1.491l-.614-1.778h-2.995l-.625 1.778h-1.47Zm4.705-2.874-1.119-3.191-1.108 3.191h2.227Z" fill="#C36"/></svg>