<svg fill="none" xmlns="http://www.w3.org/2000/svg" viewBox="0 0 176 96"><path fill-rule="evenodd" clip-rule="evenodd" d="M22.849 47.66c0-15.217 12.335-27.553 27.551-27.553 15.217 0 27.552 12.336 27.552 27.553 0 15.215-12.335 27.55-27.552 27.55-15.216 0-27.551-12.335-27.551-27.55Zm29.17-9.36a7.74 7.74 0 1 0 15.48 0 7.74 7.74 0 0 0-7.74-7.74 7.74 7.74 0 0 0-7.74 7.74Z" fill="#C36"/><path d="M89.369 42.538c-1.04 0-1.933-.223-2.678-.67A4.465 4.465 0 0 1 84.969 40c-.402-.799-.603-1.724-.603-2.774 0-1.049.2-1.977.603-2.78a4.508 4.508 0 0 1 1.722-1.885c.745-.45 1.638-.676 2.678-.676 1.236 0 2.249.306 3.038.92.791.613 1.284 1.474 1.48 2.582h-2.074c-.13-.559-.4-.998-.818-1.317-.417-.319-.97-.479-1.656-.479-.951 0-1.697.324-2.236.972-.54.647-.81 1.535-.81 2.663 0 1.13.27 2.015.81 2.657.54.643 1.285.964 2.237.964.686 0 1.238-.15 1.655-.45.418-.298.689-.713.818-1.243h2.074c-.196 1.06-.689 1.89-1.48 2.487-.789.598-1.802.898-3.038.898Z" fill="#C36"/><path fill-rule="evenodd" clip-rule="evenodd" d="M99.009 42.538c-.708 0-1.342-.162-1.906-.485a3.558 3.558 0 0 1-1.34-1.347c-.329-.574-.492-1.239-.492-1.995 0-.755.166-1.419.5-1.993a3.618 3.618 0 0 1 1.346-1.346c.564-.325 1.2-.486 1.905-.486.698 0 1.328.161 1.892.486.564.323 1.01.772 1.338 1.346.329.574.494 1.238.494 1.993 0 .756-.165 1.42-.494 1.995a3.547 3.547 0 0 1-1.345 1.347 3.774 3.774 0 0 1-1.898.485Zm.013-6.02c-.5 0-.928.185-1.286.553-.36.368-.538.915-.538 1.64 0 .727.178 1.273.538 1.642.358.367.781.551 1.273.551.49 0 .916-.184 1.279-.551.363-.369.545-.915.545-1.642 0-.725-.182-1.272-.545-1.64-.363-.368-.784-.552-1.266-.552Z" fill="#C36"/><path d="M113.459 34.886c-.531 0-1.018.117-1.465.353a2.844 2.844 0 0 0-1.067.957c-.47-.873-1.27-1.31-2.398-1.31-.51 0-.959.105-1.347.316a2.6 2.6 0 0 0-.935.846l-.16-.986h-1.664v7.3h1.884v-3.768c0-.666.154-1.187.463-1.56.31-.372.714-.559 1.215-.559.509 0 .886.167 1.132.5.246.334.368.815.368 1.442v3.944h1.884v-3.767c0-.666.155-1.187.464-1.56.309-.372.718-.559 1.228-.559.5 0 .871.167 1.111.5.241.334.361.815.361 1.442v3.944h1.883v-4.12c0-1.099-.255-1.933-.765-2.502-.51-.568-1.241-.853-2.192-.853Z" fill="#C36"/><path fill-rule="evenodd" clip-rule="evenodd" d="M124.378 35.386c.539.334.966.79 1.28 1.368.314.58.471 1.237.471 1.973 0 .735-.157 1.39-.471 1.964a3.551 3.551 0 0 1-1.28 1.354c-.541.328-1.153.493-1.839.493-.55 0-1.03-.103-1.443-.31a2.593 2.593 0 0 1-1-.867v4.238h-1.884V35.063h1.677l.207 1.044c.236-.323.546-.608.934-.853.387-.245.891-.368 1.509-.368.686 0 1.298.166 1.839.5Zm-2.237 5.504c.598 0 1.093-.201 1.486-.603.393-.402.59-.922.59-1.56s-.197-1.163-.59-1.575c-.393-.412-.888-.618-1.486-.618-.609 0-1.107.204-1.494.61-.388.408-.581.93-.581 1.568s.193 1.16.581 1.567c.387.407.885.61 1.494.61ZM130.765 38.05c-1.06 0-1.855.21-2.384.632-.53.422-.795.972-.795 1.648 0 .403.098.77.294 1.104.196.334.495.601.898.803.401.2.918.301 1.545.301.608 0 1.106-.128 1.494-.383.388-.255.689-.578.905-.971l.176 1.178h1.604v-4.489c0-.951-.299-1.687-.897-2.208-.599-.519-1.419-.78-2.458-.78-.608 0-1.158.107-1.648.318-.49.21-.891.512-1.2.904a2.563 2.563 0 0 0-.537 1.383h1.84a1.17 1.17 0 0 1 .53-.801 1.816 1.816 0 0 1 1.001-.273c.421 0 .775.118 1.059.353.285.236.427.603.427 1.104v.177h-1.854Zm1.243 2.487c-.3.352-.718.53-1.258.53-.354 0-.637-.079-.854-.236a.77.77 0 0 1-.323-.662c0-.265.107-.489.323-.67.217-.18.574-.272 1.075-.272h1.604c-.079.52-.268.957-.567 1.31Z" fill="#C36"/><path d="M143.45 38.241v4.12h-1.885v-3.943c0-.628-.127-1.109-.381-1.443-.256-.333-.653-.5-1.193-.5-.529 0-.964.187-1.302.559-.338.374-.508.893-.508 1.56v3.767h-1.883v-7.298h1.662l.148 1.235c.224-.431.552-.774.978-1.03.426-.255.929-.382 1.508-.382.903 0 1.605.284 2.105.853.5.57.751 1.404.751 2.502ZM147.599 41.876l-1.693 3.723h2.002l4.636-10.537h-2.002l-2.133 5.137-2.046-5.137h-2.046l2.841 6.814h.441ZM84.1 49.719h7.904v1.515h-3.018v8.786h-1.883v-8.786h-3.002V49.72Z" fill="#C36"/><path fill-rule="evenodd" clip-rule="evenodd" d="M97.493 53.016c-.55-.314-1.183-.47-1.899-.47-.766 0-1.43.163-1.993.492a3.46 3.46 0 0 0-1.325 1.375c-.32.59-.478 1.26-.478 2.017 0 .745.161 1.403.485 1.972.324.57.77 1.01 1.339 1.324.57.315 1.222.472 1.958.472.588 0 1.115-.11 1.582-.325a3.38 3.38 0 0 0 1.177-.89c.319-.378.546-.798.683-1.258H97.11c-.127.275-.321.498-.58.67-.262.17-.583.256-.965.256-.51 0-.944-.162-1.302-.485-.359-.323-.557-.77-.596-1.339h5.547a8.71 8.71 0 0 0 .03-.706c0-.668-.156-1.274-.465-1.818a3.38 3.38 0 0 0-1.286-1.287Zm-3.797 2.633c.098-.528.323-.925.676-1.184.354-.26.76-.39 1.222-.39.481 0 .883.143 1.207.426.323.286.5.668.53 1.148h-3.635Z" fill="#C36"/><path d="m103.511 55.312 1.84-2.59h2.031l-2.664 3.648 2.664 3.65h-2.031l-1.84-2.59-1.854 2.59h-2.016l2.649-3.65-2.649-3.648h2.016l1.854 2.59ZM111.192 50.763h-1.662l-.221 1.959h-1.252v1.574h1.252v3.18c0 .95.23 1.613.691 1.985.461.373 1.074.56 1.839.56h1.281v-1.605h-.912c-.373 0-.635-.066-.787-.198-.153-.132-.229-.375-.229-.729v-3.193h1.972v-1.574h-1.972v-1.959ZM118.329 49.719h1.884v8.829h4.562v1.472h-6.446V49.72Z" fill="#C36"/><path fill-rule="evenodd" clip-rule="evenodd" d="M131.478 53.03a3.73 3.73 0 0 0-1.891-.485c-.706 0-1.342.162-1.906.486a3.61 3.61 0 0 0-1.346 1.345c-.334.575-.5 1.24-.5 1.994 0 .757.163 1.421.492 1.995a3.564 3.564 0 0 0 1.34 1.347c.564.323 1.198.486 1.906.486.695 0 1.329-.163 1.898-.486a3.55 3.55 0 0 0 1.346-1.348c.329-.573.493-1.237.493-1.994 0-.755-.164-1.42-.493-1.994a3.563 3.563 0 0 0-1.339-1.345Zm-.626 4.98c-.362.37-.789.554-1.279.554-.491 0-.915-.184-1.273-.553-.359-.368-.538-.914-.538-1.64 0-.726.179-1.274.538-1.641a1.734 1.734 0 0 1 1.287-.551c.481 0 .903.183 1.265.55.363.368.545.916.545 1.641 0 .727-.182 1.273-.545 1.64ZM136.017 52.898c.442-.235.977-.353 1.604-.353.413 0 .795.06 1.148.176h2.767v1.148l-1.251.088c.196.373.294.785.294 1.237 0 .491-.118.937-.353 1.338a2.505 2.505 0 0 1-1.023.957c-.446.236-.974.354-1.582.354-.353 0-.681-.04-.986-.118l-.544.545c.167.087.393.16.677.22.284.058.746.117 1.384.175.971.09 1.677.32 2.118.693.442.373.663.888.663 1.545 0 .431-.118.843-.354 1.23s-.599.701-1.088.94c-.491.24-1.119.36-1.884.36-1.04 0-1.878-.192-2.517-.58-.637-.386-.955-.968-.955-1.744 0-.657.318-1.226.955-1.706a3.278 3.278 0 0 1-.507-.28 2.687 2.687 0 0 1-.375-.308v-.34l1.279-1.353c-.568-.502-.853-1.143-.853-1.928 0-.491.12-.937.361-1.339a2.56 2.56 0 0 1 1.022-.957Zm1.604 3.503c.383 0 .7-.104.95-.31.25-.207.375-.501.375-.883s-.125-.676-.375-.884c-.25-.204-.567-.308-.95-.308-.402 0-.725.104-.971.308-.245.208-.367.502-.367.884s.122.676.367.884c.246.205.569.309.971.309Zm.148 3.56c-.403-.03-.775-.073-1.119-.131-.284.157-.488.328-.611.514a1.036 1.036 0 0 0-.183.574c0 .363.169.635.507.817.339.181.753.273 1.244.273.471 0 .853-.097 1.148-.288.293-.191.441-.45.441-.773a.864.864 0 0 0-.287-.662c-.192-.176-.572-.284-1.14-.323ZM148.019 53.03a3.737 3.737 0 0 0-1.892-.485c-.706 0-1.342.162-1.906.486a3.625 3.625 0 0 0-1.346 1.345c-.333.575-.5 1.24-.5 1.994 0 .757.164 1.421.493 1.995a3.55 3.55 0 0 0 1.34 1.347 3.757 3.757 0 0 0 1.905.486 3.78 3.78 0 0 0 1.899-.486 3.548 3.548 0 0 0 1.345-1.348c.329-.573.494-1.237.494-1.994 0-.755-.165-1.42-.494-1.994a3.554 3.554 0 0 0-1.338-1.345Zm-.626 4.98c-.363.37-.79.554-1.28.554s-.914-.184-1.273-.553c-.359-.368-.537-.914-.537-1.64 0-.726.178-1.274.537-1.641a1.735 1.735 0 0 1 1.287-.551c.482 0 .903.183 1.266.55.363.368.545.916.545 1.641 0 .727-.182 1.273-.545 1.64Z" fill="#C36"/></svg>