<svg width="60" height="28" viewBox="0 0 60 28" fill="none" xmlns="http://www.w3.org/2000/svg">
<g clip-path="url(#clip0_10203_15580)">
<path d="M0 14.566C0 10.5617 0 6.55744 0 2.55316C0 2.47968 0 2.40621 0 2.33274C0.00918414 2.10313 0.119394 1.95619 0.339813 1.91027C0.7531 1.82761 1.1572 1.74495 1.57049 1.69903C2.24093 1.61637 2.91137 1.55209 3.58182 1.4878C4.06857 1.44188 4.54615 1.41432 5.03291 1.39596C5.88703 1.3684 6.73198 1.34085 7.5861 1.35922C8.89025 1.38677 10.1944 1.49698 11.4802 1.74495C12.72 1.98374 13.9048 2.37866 14.9793 3.06747C16.008 3.72873 16.807 4.61041 17.2662 5.75842C17.5968 6.57581 17.6978 7.42994 17.6795 8.30243C17.6703 9.129 17.5417 9.93721 17.2203 10.7087C16.7611 11.774 15.9988 12.5639 15.0344 13.1792C14.9702 13.2159 14.9059 13.2527 14.8508 13.2986C14.566 13.5098 14.5844 13.8864 14.8967 14.0609C14.9518 14.0884 15.0161 14.116 15.0804 14.1435C15.7049 14.4099 16.2835 14.7497 16.8253 15.163C17.8999 15.9804 18.5703 17.0549 18.8091 18.3774C19.0571 19.7275 19.0204 21.0684 18.6346 22.3817C18.157 24.0165 17.1468 25.238 15.6957 26.1105C14.7957 26.6432 13.8221 26.983 12.8211 27.231C11.9118 27.4514 10.9842 27.5891 10.0475 27.681C8.5688 27.8279 7.08097 27.8371 5.60233 27.7912C4.61962 27.7544 3.63692 27.6626 2.6634 27.5891C1.92867 27.534 1.19394 27.4422 0.468391 27.2861C0.0826573 27.2034 0 27.1024 0 26.6983C0 23.8787 0 21.0592 0 18.2397C0 17.009 0 15.7875 0 14.566ZM3.58182 20.0673C3.58182 21.2613 3.58182 22.4552 3.58182 23.6583C3.58182 23.8512 3.57263 24.0441 3.58182 24.2277C3.591 24.4941 3.75631 24.6594 4.02265 24.6778C4.81249 24.7145 5.60233 24.7604 6.39216 24.788C7.2371 24.8155 8.08204 24.788 8.9178 24.7237C9.62498 24.6778 10.3322 24.5951 11.0302 24.4482C11.8016 24.2828 12.5455 24.0441 13.2252 23.6308C14.1344 23.0797 14.8048 22.3266 15.0804 21.2704C15.2549 20.6184 15.2732 19.9571 15.1906 19.2867C15.0528 18.1295 14.5201 17.2111 13.5374 16.559C13.0782 16.2559 12.5639 16.0447 12.0404 15.8885C10.9934 15.5855 9.90969 15.4752 8.82596 15.4569C7.24629 15.4293 5.66662 15.4477 4.08694 15.4477C4.05939 15.4477 4.03184 15.4477 3.9951 15.4477C3.75631 15.4661 3.591 15.6314 3.57263 15.8793C3.56345 15.9528 3.57263 16.0263 3.57263 16.0998C3.58182 17.4223 3.58182 18.7448 3.58182 20.0673ZM6.10745 12.5639C6.51156 12.5639 6.91566 12.5639 7.31976 12.5639C8.26573 12.5731 9.21169 12.5088 10.1485 12.3435C10.8557 12.2241 11.5353 12.0128 12.1506 11.6455C12.9405 11.1771 13.5374 10.5434 13.8038 9.64332C13.9507 9.16574 13.9783 8.67898 13.9599 8.18304C13.9232 7.34728 13.6293 6.63092 13.0415 6.03395C12.5455 5.52882 11.9394 5.20737 11.2873 4.96859C10.1209 4.54612 8.90862 4.38999 7.67794 4.36243C6.52074 4.33488 5.35435 4.35325 4.19715 4.44509C3.70121 4.48183 3.57263 4.60122 3.57263 5.10635C3.57263 7.38402 3.57263 9.6525 3.57263 11.9302C3.57263 12.0128 3.57263 12.0955 3.58182 12.169C3.60018 12.3343 3.69203 12.4628 3.84816 12.518C3.93081 12.5547 4.03184 12.5639 4.12368 12.5639C4.78494 12.5639 5.4462 12.5639 6.10745 12.5639Z" fill="white"/>
<path d="M52.1476 28.0482C51.3853 28.0023 50.623 27.9747 49.8608 27.9104C49.0434 27.837 48.2627 27.6349 47.4821 27.3778C47.1882 27.2859 46.8943 27.1849 46.6096 27.0839C46.3432 26.992 46.2698 26.8634 46.3249 26.5971C46.481 25.8807 46.6371 25.1644 46.7841 24.448C46.8392 24.1817 47.0045 24.0255 47.3351 24.1449C47.8219 24.3194 48.3178 24.4848 48.8138 24.6593C49.475 24.8889 50.1638 25.0083 50.8618 25.045C51.5966 25.0817 52.3313 25.1001 53.066 25.0817C53.7824 25.0634 54.4804 24.9623 55.1508 24.6868C55.3253 24.6133 55.4998 24.5307 55.6559 24.4205C56.1886 24.0715 56.455 23.5572 56.5009 22.9326C56.5652 21.9407 56.1886 21.1601 55.3621 20.5999C54.7283 20.1682 54.0487 19.8192 53.3507 19.5161C52.4874 19.1396 51.6241 18.7906 50.7608 18.4232C50.1546 18.1661 49.5485 17.8997 48.9883 17.5507C48.2811 17.1099 47.6749 16.5588 47.2341 15.8517C46.8759 15.2731 46.6647 14.6485 46.6004 13.9689C46.5177 13.1332 46.5545 12.2974 46.8208 11.4892C47.2157 10.2677 48.0147 9.36766 49.0985 8.71558C49.9067 8.22882 50.7884 7.9533 51.7159 7.78799C52.6895 7.62267 53.6722 7.59512 54.6549 7.66859C55.9682 7.76043 57.2724 7.96248 58.5398 8.3574C58.8612 8.45843 58.9255 8.56864 58.8612 8.89008C58.7143 9.57889 58.5673 10.2677 58.4204 10.9565C58.3469 11.2871 58.1816 11.379 57.8601 11.2504C57.1162 10.9749 56.3539 10.7545 55.5733 10.6443C55.0039 10.5616 54.4345 10.534 53.865 10.5249C53.213 10.5157 52.5793 10.5708 51.9547 10.7636C51.3302 10.9473 50.8067 11.278 50.4394 11.829C49.8332 12.7382 49.9342 13.8679 50.6873 14.6577C51.0822 15.0618 51.5506 15.3649 52.065 15.5853C52.6619 15.8517 53.2681 16.0813 53.8742 16.3292C54.7651 16.6966 55.6651 17.0548 56.556 17.4405C57.1805 17.716 57.7683 18.0742 58.2918 18.5151C59.1827 19.2498 59.7153 20.1958 59.9082 21.3346C60.046 22.1612 60.0551 22.9969 59.8806 23.8327C59.6235 25.1093 58.9255 26.0828 57.8326 26.7808C57.0519 27.2767 56.1978 27.5706 55.3069 27.7635C54.26 27.9655 53.2038 28.0298 52.1476 28.0482Z" fill="white"/>
<path d="M31.1893 12.031C31.1893 9.10126 31.1893 6.17152 31.1893 3.25096C31.1893 3.17749 31.1893 3.10402 31.1893 3.03054C31.1985 2.80094 31.2995 2.66318 31.5291 2.60807C31.823 2.54378 32.1169 2.49786 32.4108 2.44276C32.9711 2.34173 33.5405 2.24989 34.1007 2.15805C34.4038 2.10295 34.6242 2.27744 34.6426 2.58052C34.6426 2.63563 34.6426 2.69991 34.6426 2.75502C34.6426 4.31632 34.6426 5.87763 34.6426 7.44812C34.6426 7.51241 34.6426 7.57669 34.6426 7.65017C34.6517 7.90732 34.8079 8.07264 35.065 8.10019C35.1477 8.10937 35.2395 8.10938 35.3314 8.10938C37.3519 8.10938 39.3724 8.10938 41.3929 8.10938C41.4847 8.10938 41.5858 8.10938 41.6776 8.11856C41.8705 8.14611 41.9991 8.26551 42.0266 8.45837C42.0358 8.49511 42.0358 8.53185 42.0358 8.56858C42.0358 9.22066 42.0358 9.87273 42.0358 10.5248C42.0358 10.5432 42.0358 10.5707 42.0358 10.5891C42.0174 10.8187 41.8797 10.9656 41.6501 10.9932C41.5766 11.0024 41.5031 11.0024 41.4296 11.0024C39.3908 11.0024 37.3427 11.0024 35.3038 11.0024C35.2212 11.0024 35.1385 11.0024 35.065 11.0024C34.8446 11.0207 34.6885 11.1769 34.6609 11.3973C34.6517 11.4616 34.6517 11.5259 34.6517 11.5993C34.6517 14.4556 34.6517 17.3119 34.6517 20.159C34.6517 20.9855 34.7069 21.8121 34.9273 22.6203C34.9916 22.8591 35.0742 23.0979 35.1752 23.3275C35.5334 24.1265 36.1488 24.6133 37.0029 24.8061C37.6641 24.9623 38.3254 24.9623 38.9958 24.9255C39.5193 24.8888 40.0336 24.8337 40.5296 24.6776C40.8694 24.5674 41.2092 24.4388 41.5398 24.3102C41.5766 24.301 41.6041 24.2827 41.6409 24.2735C41.9348 24.1724 42.1552 24.2918 42.2287 24.5857C42.3389 25.0174 42.4307 25.4582 42.5409 25.8899C42.596 26.1103 42.6419 26.3307 42.697 26.5511C42.7613 26.8267 42.6695 27.0103 42.4032 27.1114C41.4388 27.4787 40.4561 27.8002 39.4183 27.9104C38.5183 28.0114 37.6182 28.0114 36.7182 27.9288C36.0386 27.8645 35.3773 27.7451 34.7436 27.5063C33.2098 26.9277 32.2363 25.8164 31.722 24.2827C31.52 23.6857 31.4098 23.0612 31.3271 22.4366C31.2077 21.5366 31.1893 20.6274 31.1893 19.7181C31.1985 17.1466 31.1893 14.5934 31.1893 12.031Z" fill="white"/>
<path d="M23.1717 17.8171C23.1717 14.7771 23.1717 11.7464 23.1717 8.7064C23.1717 8.63293 23.1717 8.55946 23.1717 8.48598C23.1808 8.25638 23.3094 8.1278 23.539 8.10025C23.5941 8.09106 23.6584 8.09106 23.7135 8.09106C24.5034 8.09106 25.284 8.09106 26.0739 8.09106C26.1198 8.09106 26.1657 8.09106 26.2024 8.09106C26.478 8.10943 26.6157 8.23801 26.6249 8.52272C26.6249 8.57782 26.6249 8.64211 26.6249 8.69722C26.6249 14.7863 26.6249 20.8754 26.6249 26.9645C26.6249 27.0471 26.6341 27.1298 26.6157 27.2033C26.5882 27.4145 26.4504 27.5523 26.23 27.5523C25.3299 27.5523 24.4391 27.5523 23.539 27.5523C23.3094 27.5523 23.1717 27.4053 23.1625 27.1849C23.1625 27.1114 23.1625 27.038 23.1625 26.9645C23.1717 23.9245 23.1717 20.8754 23.1717 17.8171Z" fill="white"/>
<path d="M24.9258 0C25.7615 0.0183683 26.4503 0.37655 26.8728 1.17557C27.0749 1.55212 27.13 1.97459 27.1116 2.39706C27.0749 3.19608 26.7442 3.83897 26.0371 4.25226C25.2197 4.72983 23.9431 4.66554 23.19 3.82979C22.8593 3.46242 22.694 3.02158 22.6573 2.53482C22.6297 2.24093 22.6481 1.94704 22.7124 1.66233C22.9512 0.596969 23.9247 0.0367366 24.687 0.0275524C24.7513 0.00918414 24.8156 0.00918414 24.9258 0Z" fill="white"/>
</g>
<defs>
<clipPath id="clip0_10203_15580">
<rect width="60" height="27.9841" fill="white"/>
</clipPath>
</defs>
</svg>
