<svg fill="none" xmlns="http://www.w3.org/2000/svg" viewBox="0 0 176 96"><path d="M46.616 18.28 26.61 38.287l7.754 7.752 12.254-12.254L58.871 46.04l7.754-7.752-20.009-20.009Z" fill="#C36"/><path d="M26.61 57.671 46.616 77.68 66.624 57.67 46.617 37.663 26.609 57.671Z" fill="#C36"/><path fill-rule="evenodd" clip-rule="evenodd" d="M94.524 53.473c.653-.463 1.112-1.097 1.38-1.901.268-.803.403-1.735.403-2.792v-7.322c0-1.071-.139-2.002-.414-2.792-.274-.79-.742-1.401-1.401-1.836-.659-.435-1.554-.652-2.683-.652-1.145 0-2.047.217-2.705.652-.66.435-1.13 1.046-1.413 1.836-.282.79-.423 1.72-.423 2.792v7.3c0 1.058.133 1.996.401 2.814.268.818.731 1.456 1.391 1.913.66.456 1.575.684 2.749.684 1.159 0 2.063-.232 2.715-.696Zm-5.355-2.401c-.153-.557-.228-1.206-.228-1.944v-7.974c0-.739.075-1.383.228-1.934.152-.55.435-.974.847-1.27.413-.298 1.01-.447 1.793-.447.767 0 1.354.15 1.759.446.406.297.684.721.837 1.27.153.552.229 1.196.229 1.935v7.974c0 .739-.076 1.387-.229 1.944-.153.557-.431.992-.837 1.304-.405.312-.992.466-1.76.466-.782 0-1.379-.154-1.792-.466-.412-.311-.695-.746-.847-1.304Z" fill="#C36"/><path d="M81.748 36.178c1.058 0 1.887.203 2.488.609.601.405 1.033.98 1.293 1.727.26.746.391 1.633.391 2.662v1.064h-1.564v-1.02c0-.768-.063-1.428-.185-1.978-.123-.55-.373-.978-.75-1.282-.377-.305-.926-.457-1.65-.457-.797 0-1.396.164-1.793.49-.4.326-.667.785-.804 1.38-.138.594-.207 1.28-.207 2.063v7.496c0 .869.083 1.593.25 2.173.166.58.453 1.014.859 1.304.405.289.97.433 1.694.433.739 0 1.293-.158 1.663-.477.369-.319.615-.764.738-1.336.122-.572.185-1.242.185-2.01v-1.151h1.564v1.042c0 1.03-.12 1.938-.359 2.727-.238.79-.659 1.41-1.26 1.858-.6.449-1.452.674-2.553.674-1.187 0-2.103-.246-2.748-.739-.645-.492-1.09-1.155-1.336-1.989-.247-.832-.37-1.755-.37-2.77v-6.995c0-1.087.127-2.043.38-2.868.254-.827.707-1.47 1.359-1.934.651-.464 1.556-.696 2.715-.696ZM131.024 59.738h1.585v-.307h-1.208v-.805h1.101v-.299h-1.101v-.776h1.208v-.307h-1.585v2.494ZM128.214 57.245l1.251 1.877v-1.877h.377v2.493h-.377l-1.251-1.877v1.877h-.377v-2.493h.377ZM126.654 59.738h-.377v-2.493h.377v2.493ZM135.687 58.313h1.207v-1.068h.377v2.493h-.377v-1.115h-1.207v1.115h-.378v-2.493h.378v1.068ZM138.453 59.738h1.585v-.307h-1.207v-.805h1.1v-.299h-1.1v-.776h1.207v-.307h-1.585v2.494Z" fill="#C36"/><path fill-rule="evenodd" clip-rule="evenodd" d="M142.885 57.99a.754.754 0 0 1-.123.42.684.684 0 0 1-.383.27l.531 1.057h-.438l-.485-1.004h-.446v1.005h-.377v-2.493h.858c.198 0 .359.033.487.099a.668.668 0 0 1 .283.27.765.765 0 0 1 .093.375Zm-1.344.458h.46c.171 0 .296-.041.376-.124a.45.45 0 0 0 .119-.324.435.435 0 0 0-.117-.319c-.079-.08-.206-.12-.382-.12h-.456v.887Z" fill="#C36"/><path d="M144.006 59.738h1.585v-.307h-1.208v-.805h1.101v-.299h-1.101v-.776h1.208v-.307h-1.585v2.494ZM103.063 53.952l-3.325-13.993-.347 13.993h-1.369l.435-17.6h1.651l3.476 15.275 3.542-15.275h1.652l.434 17.6h-1.369l-.348-14.015-3.367 14.015h-1.065Z" fill="#C36"/><path fill-rule="evenodd" clip-rule="evenodd" d="M117.935 45a3.508 3.508 0 0 0 1.326-1.684 6.375 6.375 0 0 0 .402-2.293c0-.941-.127-1.759-.381-2.455a3.17 3.17 0 0 0-1.292-1.63c-.609-.39-1.441-.586-2.499-.586h-4.216v17.6h1.653V45.63h2.584c1 0 1.808-.21 2.423-.63Zm-5.007-.609v-6.8h2.128c.783 0 1.388.097 1.814.293.427.196.728.544.902 1.043.174.499.261 1.199.261 2.096 0 .84-.101 1.508-.303 2-.204.492-.526.844-.968 1.053-.442.21-1.018.315-1.727.315h-2.107ZM124.509 36.352l3.738 17.6h-1.631l-.869-4.716h-4.193l-.89 4.716h-1.609l3.715-17.6h1.739Zm-.848 2.194-1.868 9.495h3.737l-1.869-9.495Z" fill="#C36"/><path d="m136.307 50.019-5.606-13.667h-1.195v17.6h1.434V40.133l5.627 13.819h1.174v-17.6h-1.434V50.02ZM144.345 53.951h-1.607v-5.845l-3.977-11.754h1.608l3.172 9.777 3.042-9.777h1.629l-3.867 11.754v5.845ZM78.37 58.448l-.588-1.203h-.426l.826 1.573v.92h.377v-.92l.82-1.573h-.424l-.585 1.203Z" fill="#C36"/><path fill-rule="evenodd" clip-rule="evenodd" d="M81.352 57.202c.246 0 .462.055.648.163.185.11.33.26.432.455.103.193.155.417.155.67 0 .255-.052.48-.155.673a1.129 1.129 0 0 1-.432.453c-.186.11-.402.165-.648.165-.247 0-.464-.055-.648-.165a1.14 1.14 0 0 1-.435-.453 1.398 1.398 0 0 1-.157-.673c0-.253.052-.477.157-.67.104-.194.248-.345.435-.455.184-.108.4-.163.648-.163Zm.447 2.126a.777.777 0 0 0 .297-.328c.07-.142.107-.312.107-.51 0-.195-.036-.366-.107-.508a.775.775 0 0 0-.297-.328.856.856 0 0 0-.447-.114.87.87 0 0 0-.45.114.764.764 0 0 0-.297.328c-.07.142-.104.313-.104.508 0 .198.034.368.104.51.07.143.17.252.297.328a.87.87 0 0 0 .45.114c.17 0 .32-.038.447-.114Z" fill="#C36"/><path d="M85.2 58.805c0 .217-.051.378-.156.48a.57.57 0 0 1-.42.153.577.577 0 0 1-.424-.153c-.104-.102-.157-.263-.157-.48v-1.56h-.378V58.8c0 .223.043.407.127.552a.789.789 0 0 0 .342.322c.144.07.305.105.483.105.176 0 .336-.035.482-.105a.806.806 0 0 0 .35-.322c.086-.145.13-.329.13-.552v-1.556H85.2v1.56Z" fill="#C36"/><path fill-rule="evenodd" clip-rule="evenodd" d="M88.46 57.99a.753.753 0 0 1-.123.42.68.68 0 0 1-.383.27l.531 1.057h-.438l-.485-1.004h-.445v1.005h-.377v-2.493h.858c.197 0 .359.033.487.099a.662.662 0 0 1 .282.27.763.763 0 0 1 .094.375Zm-1.343.458h.46c.17 0 .296-.041.375-.124a.45.45 0 0 0 .12-.324c0-.133-.04-.24-.118-.319-.078-.08-.205-.12-.38-.12h-.457v.887Z" fill="#C36"/><path d="M92.263 57.54c.183 0 .33.043.438.129.11.084.181.2.215.346h.42a.951.951 0 0 0-.353-.6c-.185-.142-.423-.213-.716-.213-.247 0-.46.054-.639.164-.18.11-.318.26-.415.454a1.478 1.478 0 0 0-.146.674c0 .254.049.478.146.672.097.193.235.344.415.452.18.108.392.162.64.162.292 0 .53-.07.715-.21a.926.926 0 0 0 .352-.58h-.419a.559.559 0 0 1-.215.33.715.715 0 0 1-.438.122.74.74 0 0 1-.59-.253c-.145-.168-.218-.4-.218-.695 0-.296.073-.53.218-.7a.737.737 0 0 1 .59-.254Z" fill="#C36"/><path fill-rule="evenodd" clip-rule="evenodd" d="M95.58 57.202c.246 0 .462.055.648.163.185.11.33.26.432.455.103.193.155.417.155.67 0 .255-.052.48-.155.673a1.129 1.129 0 0 1-.432.453c-.186.11-.402.165-.648.165-.247 0-.464-.055-.648-.165a1.14 1.14 0 0 1-.435-.453 1.398 1.398 0 0 1-.157-.673c0-.253.052-.477.157-.67.104-.194.248-.345.435-.455.184-.108.4-.163.648-.163Zm.447 2.126a.778.778 0 0 0 .297-.328c.07-.142.107-.312.107-.51 0-.195-.036-.366-.107-.508a.775.775 0 0 0-.297-.328.856.856 0 0 0-.447-.114.87.87 0 0 0-.45.114.764.764 0 0 0-.297.328c-.07.142-.104.313-.104.508 0 .198.034.368.104.51.07.143.17.252.297.328a.87.87 0 0 0 .45.114c.17 0 .32-.038.447-.114Z" fill="#C36"/><path d="m99.202 58.904-.844-1.659h-.446v2.492h.378V57.9l.766 1.481h.291l.763-1.485v1.841h.377v-2.492h-.444l-.84 1.659Z" fill="#C36"/><path fill-rule="evenodd" clip-rule="evenodd" d="M102.543 57.245c.194 0 .356.032.485.097a.667.667 0 0 1 .286.267c.063.113.095.24.095.383a.76.76 0 0 1-.092.373.642.642 0 0 1-.282.268c-.129.067-.293.1-.492.1h-.495v1.004h-.378v-2.492h.873Zm-.018 1.179c.178 0 .306-.04.383-.116a.427.427 0 0 0 .116-.316.434.434 0 0 0-.116-.321c-.077-.078-.205-.116-.383-.116h-.477v.869h.477ZM104.929 57.245l-.919 2.492h.399l.214-.608h1.018l.214.608h.399l-.912-2.492h-.413Zm-.199 1.584.402-1.135.403 1.135h-.805Z" fill="#C36"/><path d="m107.656 57.245 1.251 1.877v-1.877h.377v2.493h-.377l-1.251-1.877v1.877h-.377v-2.493h.377ZM111.29 58.448l-.588-1.203h-.427l.826 1.573v.92h.378v-.92l.819-1.573h-.423l-.585 1.203ZM115.447 57.55h-.738v-.305h1.848v.306h-.733v2.187h-.377v-2.187Z" fill="#C36"/><path fill-rule="evenodd" clip-rule="evenodd" d="m118.074 57.245-.918 2.492h.398l.214-.608h1.018l.214.608h.399l-.912-2.492h-.413Zm-.199 1.584.402-1.135.403 1.135h-.805Z" fill="#C36"/><path d="M122.166 58.676h-.676v-.291h1.057v1.352h-.345l-.032-.366a.902.902 0 0 1-.314.302.99.99 0 0 1-.492.108 1.09 1.09 0 0 1-1.025-.609 1.479 1.479 0 0 1-.145-.674c0-.254.049-.479.149-.673.099-.195.242-.348.426-.458.183-.11.401-.165.653-.165.284 0 .522.069.712.206a.95.95 0 0 1 .37.57h-.427a.54.54 0 0 0-.225-.312.741.741 0 0 0-.43-.115c-.26 0-.466.084-.616.253-.15.168-.224.4-.224.698 0 .297.073.528.22.694.147.167.343.25.588.25.247 0 .432-.07.558-.211a.943.943 0 0 0 .218-.559ZM124.061 57.245h-.377v2.493h1.509v-.3h-1.132v-2.193Z" fill="#C36"/></svg>