<svg width="55" height="55" viewBox="0 0 55 55" fill="none" xmlns="http://www.w3.org/2000/svg">
<path d="M35.7328 6.9373C33.6424 4.68037 30.7227 3.4375 27.5 3.4375C24.2602 3.4375 21.3308 4.67285 19.25 6.91582C17.1467 9.1835 16.1219 12.2654 16.3625 15.5934C16.8395 22.159 21.8357 27.5 27.5 27.5C33.1644 27.5 38.152 22.1601 38.6364 15.5955C38.8803 12.2977 37.849 9.22217 35.7328 6.9373Z" fill="#6C757D"/>
<path d="M46.4063 51.5625H8.59375C8.09882 51.5689 7.60868 51.465 7.15899 51.2581C6.7093 51.0513 6.31136 50.7469 5.99414 50.3669C5.2959 49.5322 5.01446 48.3925 5.22286 47.2398C6.1295 42.2104 8.95899 37.9854 13.4063 35.0195C17.3572 32.3866 22.362 30.9375 27.5 30.9375C32.638 30.9375 37.6428 32.3877 41.5938 35.0195C46.041 37.9844 48.8705 42.2093 49.7772 47.2388C49.9855 48.3914 49.7041 49.5312 49.0059 50.3658C48.6887 50.746 48.2909 51.0506 47.8412 51.2577C47.3915 51.4647 46.9013 51.5688 46.4063 51.5625Z" fill="#6C757D"/>
</svg>
