<svg width="24" height="24" viewBox="0 0 24 24" fill="none" xmlns="http://www.w3.org/2000/svg">
<path fill-rule="evenodd" clip-rule="evenodd" d="M6.41843 3.33614C7.7527 2.4446 9.32138 1.96875 10.9261 1.96875V2.71875L10.9261 1.96875C13.0779 1.96889 15.1416 2.82375 16.6631 4.3453C18.1847 5.86686 19.0396 7.93049 19.0397 10.0823V10.0823C19.0397 11.6871 18.5638 13.2557 17.6723 14.59C16.7808 15.9243 15.5136 16.9642 14.031 17.5783C12.5485 18.1924 10.9171 18.3531 9.34321 18.04C7.76933 17.727 6.32363 16.9542 5.18892 15.8195C4.05421 14.6848 3.28147 13.2391 2.9684 11.6652C2.65534 10.0913 2.81602 8.45997 3.43011 6.97741C4.04421 5.49484 5.08415 4.22767 6.41843 3.33614ZM10.9261 3.46875C12.6801 3.46887 14.3622 4.1657 15.6025 5.40596C16.8427 6.64623 17.5396 8.32835 17.5397 10.0823M10.926 3.46875C9.61802 3.46876 8.33937 3.85664 7.25178 4.58334C6.16418 5.31005 5.3165 6.34295 4.81593 7.55143C4.31537 8.75991 4.1844 10.0897 4.43958 11.3726C4.69477 12.6555 5.32465 13.8339 6.24958 14.7589C7.17451 15.6838 8.35294 16.3137 9.63585 16.5689C10.9188 16.824 12.2485 16.6931 13.457 16.1925C14.6655 15.6919 15.6984 14.8443 16.4251 13.7567C17.1518 12.6691 17.5397 11.3904 17.5397 10.0824" fill="#6C757D"/>
<path fill-rule="evenodd" clip-rule="evenodd" d="M15.327 15.327C15.6199 15.0341 16.0948 15.0341 16.3877 15.327L21.5303 20.4696C21.8232 20.7625 21.8232 21.2374 21.5303 21.5303C21.2375 21.8232 20.7626 21.8232 20.4697 21.5303L15.327 16.3876C15.0341 16.0947 15.0341 15.6199 15.327 15.327Z" fill="#6C757D"/>
</svg>
