<svg width="80" height="26" viewBox="0 0 80 26" fill="none" xmlns="http://www.w3.org/2000/svg">
<path d="M0.0562744 18.2648C0.0562744 21.9778 6.75107 25.6909 17.4965 25.2971C17.4965 25.2971 17.4965 23.0468 17.4965 21.9216C17.4965 19.3337 14.7398 19.615 12.3769 19.6712C7.25739 19.7838 4.16316 18.3773 1.68778 16.0707C0.675117 15.058 0.112533 13.6515 0.0562744 12.5264V18.2648Z" fill="url(#paint0_linear_10141_15331)"/>
<path d="M2.75659 0.0369525C2.75659 0.0369525 2.75659 2.2873 2.75659 3.41248C2.75659 6.00038 5.51327 5.71909 7.87614 5.66283C12.9957 5.55031 16.0899 6.95678 18.5653 9.26339C19.578 10.276 20.1406 11.6825 20.1968 12.8077V7.12556C20.1968 3.58126 14.1771 0.0932147 4.33185 0.0932147C3.82552 -0.0193028 3.26292 -0.0193062 2.75659 0.0369525Z" fill="url(#paint1_linear_10141_15331)"/>
<path d="M17.9465 9.54465C16.765 9.93846 15.1898 10.1635 13.7833 10.3885C10.4078 10.8386 6.75096 11.2324 6.6947 14.4954V21.0214C12.6019 20.5151 19.9718 16.802 20.1968 13.2015C20.1968 13.089 20.1968 12.9764 20.1968 12.8639C20.1968 12.3576 20.1405 7.23804 20.1405 7.23804C19.6342 8.98206 17.9465 9.54465 17.9465 9.54465Z" fill="url(#paint2_linear_10141_15331)"/>
<path d="M0 12.0763C0 12.1888 0 12.3014 0 12.4139C0 12.9202 0.0562622 18.096 0.0562622 18.096C0.562591 16.352 2.25035 15.7331 2.25035 15.7331C3.43178 15.3393 5.00703 15.1143 6.4135 14.8893C9.78902 14.4392 13.5021 14.0454 13.5021 10.7261V4.25635C7.65119 4.76268 0.281294 8.53201 0 12.0763Z" fill="url(#paint3_linear_10141_15331)"/>
<path d="M49.3953 7.18188H42.813V21.0215H46.4698V15.9583H49.3953C55.4149 15.9583 55.6962 12.5827 55.6962 11.4013C55.6962 10.1073 54.9649 7.18188 49.3953 7.18188ZM48.7202 14.3268H46.4698V8.92591H48.7202C51.6456 8.92591 52.2645 10.5012 52.2645 11.5138C52.2645 12.5265 51.7581 14.3268 48.7202 14.3268Z" fill="#2D2555"/>
<path d="M78.2559 9.26318C78.7622 9.31944 79.156 9.31944 79.3811 8.92562C79.4936 8.70059 79.9999 7.80045 79.9999 7.80045C79.3811 7.51915 78.7622 7.35038 77.9746 7.23786C77.2432 7.12534 76.3431 7.06909 75.3304 7.06909C72.5738 7.06909 70.4359 7.7442 68.8607 9.09441C67.3417 10.4446 66.5541 12.1324 66.5541 14.1014C66.5541 16.1268 67.2854 17.8145 68.8607 19.1647C70.3797 20.5149 72.5175 21.19 75.2742 21.19C77.2995 21.19 78.8747 20.9087 79.9999 20.4024C79.9999 20.4024 79.4373 19.2772 79.2685 19.0522C79.0435 18.6584 78.5372 18.8272 78.0871 18.8834C76.9057 19.1085 73.8677 19.7273 71.9549 17.8145C71.0548 16.8581 70.5484 15.6204 70.5484 14.1014C70.5484 12.6387 70.9985 11.2885 71.8987 10.3884C74.0365 8.25052 77.7496 9.26318 78.2559 9.26318Z" fill="#2D2555"/>
<path d="M61.0971 7.18188H59.1281V21.0778H63.0099V8.58835C63.0662 7.68821 62.5036 7.18188 61.0971 7.18188Z" fill="#2D2555"/>
<path d="M34.9366 13.0891C33.3614 12.639 32.2925 12.2452 31.6736 11.9076C31.111 11.5701 30.8297 11.12 30.8297 10.5574C30.8297 9.93858 31.1673 9.48851 31.7299 9.15095C32.3487 8.8134 33.1363 8.64463 34.2053 8.70089C34.8804 8.70089 35.5555 8.81341 36.1181 8.92592C36.3994 8.98218 36.6244 9.03845 36.8494 9.09471C37.3558 9.26349 37.9746 9.03844 38.2559 8.58837L38.706 7.91327C38.1434 7.68824 37.412 7.4632 36.6244 7.29442C35.7805 7.12565 34.8241 7.01313 33.6989 7.01313C31.6174 6.95687 29.9296 7.29443 28.6356 7.96953C27.3417 8.7009 26.6666 9.60104 26.6666 10.7262C26.6103 11.4576 26.9479 12.1889 27.6793 12.864C28.3544 13.5391 29.4795 14.0455 30.9985 14.4955C32.5175 14.9456 33.5302 15.2832 34.0928 15.677C34.6553 16.0145 34.8804 16.4646 34.8804 16.9709C34.8804 17.5898 34.4866 17.9836 33.8115 18.3211C33.1364 18.6587 32.2362 18.8275 31.111 18.8275C30.3234 18.8275 29.592 18.715 28.9169 18.6024C28.6356 18.5462 28.4106 18.4899 28.1293 18.4337C27.5667 18.2649 27.0041 18.6024 26.6666 19.0525L26.104 19.8964C26.7791 20.1777 27.5667 20.4027 28.4669 20.5715C29.367 20.7403 30.4359 20.7965 31.7861 20.8528C33.924 20.909 35.7243 20.5715 37.1307 19.8401C38.5372 19.1088 39.2686 18.1524 39.3248 16.9709C39.3811 16.1833 39.0435 15.4519 38.3122 14.7768C37.6933 14.1017 36.5681 13.5391 34.9366 13.0891Z" fill="#2D2555"/>
<defs>
<linearGradient id="paint0_linear_10141_15331" x1="17.7018" y1="27.7988" x2="2.86814" y2="15.5738" gradientUnits="userSpaceOnUse">
<stop offset="0.089" stop-color="#E76D0A"/>
<stop offset="0.4723" stop-color="#DA0E15"/>
<stop offset="0.5627" stop-color="#D50F15"/>
<stop offset="0.6721" stop-color="#C61215"/>
<stop offset="0.7907" stop-color="#AE1716"/>
<stop offset="0.8602" stop-color="#9C1A16"/>
</linearGradient>
<linearGradient id="paint1_linear_10141_15331" x1="2.72239" y1="6.35441" x2="20.1791" y2="6.35441" gradientUnits="userSpaceOnUse">
<stop stop-color="#77B12B"/>
<stop offset="0.4813" stop-color="#2C6B32"/>
<stop offset="1" stop-color="#264730"/>
</linearGradient>
<linearGradient id="paint2_linear_10141_15331" x1="24.9805" y1="6.78358" x2="7.48851" y2="17.7846" gradientUnits="userSpaceOnUse">
<stop stop-color="#CED200"/>
<stop offset="0.2325" stop-color="#8DB924"/>
<stop offset="1" stop-color="#007B36"/>
</linearGradient>
<linearGradient id="paint3_linear_10141_15331" x1="-0.000393811" y1="11.1872" x2="13.5239" y2="11.1872" gradientUnits="userSpaceOnUse">
<stop stop-color="#E76D0A"/>
<stop offset="0.00608115" stop-color="#E76B0A"/>
<stop offset="0.1556" stop-color="#E03910"/>
<stop offset="0.2689" stop-color="#DC1A14"/>
<stop offset="0.3321" stop-color="#DA0E15"/>
<stop offset="0.475" stop-color="#D50F15"/>
<stop offset="0.6479" stop-color="#C61215"/>
<stop offset="0.8355" stop-color="#AE1716"/>
<stop offset="0.9453" stop-color="#9C1A16"/>
<stop offset="1" stop-color="#9C1A16"/>
</linearGradient>
</defs>
</svg>
